{
  "accessors": [
    {
      "bufferView": 2,
      "componentType": 5126,
      "count": 66,
      "max": [
        0.7960591912269592,
        1.000000238418579,
        1.0
      ],
      "min": [
        -0.7960591912269592,
        -1.000000238418579,
        -1.1409296989440918
      ],
      "type": "VEC3"
    },
    {
      "bufferView": 2,
      "byteOffset": 792,
      "componentType": 5126,
      "count": 66,
      "max": [
        0.9909727573394775,
        0.9930714964866638,
        1.0
      ],
      "min": [
        -0.9909727573394775,
        -0.9930714964866638,
        -1.0
      ],
      "type": "VEC3"
    },
    {
      "bufferView": 1,
      "componentType": 5126,
      "count": 66,
      "max": [
        1.0,
        0.8263915181159973
      ],
      "min": [
        -7.509673594086053e-08,
        0.0
      ],
      "type": "VEC2"
    },
    {
      "bufferView": 0,
      "componentType": 5125,
      "count": 108,
      "type": "SCALAR"
    },
    {
      "bufferView": 2,
      "byteOffset": 1584,
      "componentType": 5126,
      "count": 1460,
      "max": [
        1.0000001192092896,
        1.0000001192092896,
        1.0000001192092896
      ],
      "min": [
        -1.0000001192092896,
        -1.0000001192092896,
        -1.0000001192092896
      ],
      "type": "VEC3"
    },
    {
      "bufferView": 2,
      "byteOffset": 19104,
      "componentType": 5126,
      "count": 1460,
      "max": [
        1.0,
        1.0,
        1.0
      ],
      "min": [
        -1.0,
        -1.0,
        -1.0
      ],
      "type": "VEC3"
    },
    {
      "bufferView": 1,
      "byteOffset": 528,
      "componentType": 5126,
      "count": 1460,
      "max": [
        1.0000001192092896,
        0.6666669249534607
      ],
      "min": [
        -4.8648210793089675e-08,
        -6.321867829228722e-08
      ],
      "type": "VEC2"
    },
    {
      "bufferView": 0,
      "byteOffset": 432,
      "componentType": 5125,
      "count": 2304,
      "type": "SCALAR"
    },
    {
      "bufferView": 2,
      "byteOffset": 36624,
      "componentType": 5126,
      "count": 1460,
      "max": [
        1.0000001192092896,
        1.0000001192092896,
        1.0000001192092896
      ],
      "min": [
        -1.0000001192092896,
        -1.0000001192092896,
        -1.0000001192092896
      ],
      "type": "VEC3"
    },
    {
      "bufferView": 2,
      "byteOffset": 54144,
      "componentType": 5126,
      "count": 1460,
      "max": [
        1.0,
        1.0,
        1.0
      ],
      "min": [
        -1.0,
        -1.0,
        -1.0
      ],
      "type": "VEC3"
    },
    {
      "bufferView": 1,
      "byteOffset": 12208,
      "componentType": 5126,
      "count": 1460,
      "max": [
        1.0000001192092896,
        0.6666669249534607
      ],
      "min": [
        0.0,
        -6.321867829228722e-08
      ],
      "type": "VEC2"
    },
    {
      "bufferView": 0,
      "byteOffset": 9648,
      "componentType": 5125,
      "count": 2304,
      "type": "SCALAR"
    },
    {
      "bufferView": 2,
      "byteOffset": 71664,
      "componentType": 5126,
      "count": 617,
      "max": [
        1.0,
        1.0,
        0.6908137798309326
      ],
      "min": [
        -1.0,
        -1.0,
        -4.879129886627197
      ],
      "type": "VEC3"
    },
    {
      "bufferView": 2,
      "byteOffset": 79068,
      "componentType": 5126,
      "count": 617,
      "max": [
        1.0,
        1.0,
        1.0
      ],
      "min": [
        -1.0,
        -1.0,
        -1.0
      ],
      "type": "VEC3"
    },
    {
      "bufferView": 1,
      "byteOffset": 23888,
      "componentType": 5126,
      "count": 617,
      "max": [
        0.9385554194450378,
        1.0
      ],
      "min": [
        -5.960465188081798e-08,
        -1.3144762611716487e-08
      ],
      "type": "VEC2"
    },
    {
      "bufferView": 0,
      "byteOffset": 18864,
      "componentType": 5125,
      "count": 1242,
      "type": "SCALAR"
    },
    {
      "bufferView": 2,
      "byteOffset": 86472,
      "componentType": 5126,
      "count": 36,
      "max": [
        0.9845994114875793,
        0.967566192150116,
        0.6412739157676697
      ],
      "min": [
        -0.9845994114875793,
        -0.9387906789779663,
        0.6412739157676697
      ],
      "type": "VEC3"
    },
    {
      "bufferView": 2,
      "byteOffset": 86904,
      "componentType": 5126,
      "count": 36,
      "max": [
        0.0,
        0.0,
        1.0
      ],
      "min": [
        0.0,
        0.0,
        1.0
      ],
      "type": "VEC3"
    },
    {
      "bufferView": 1,
      "byteOffset": 28824,
      "componentType": 5126,
      "count": 36,
      "max": [
        0.21020685136318207,
        0.9737014770507813
      ],
      "min": [
        -4.883958570900404e-09,
        0.7565653324127197
      ],
      "type": "VEC2"
    },
    {
      "bufferView": 0,
      "byteOffset": 23832,
      "componentType": 5125,
      "count": 150,
      "type": "SCALAR"
    }
  ],
  "asset": {
    "extras": {
      "author": "MrSeb06 (https://sketchfab.com/mihneasebastian06)",
      "license": "SKETCHFAB Standard (https://sketchfab.com/licenses)",
      "source": "https://sketchfab.com/3d-models/simple-screen-6ff25e665ff94bf08e881a6bb7885cb7",
      "title": "Simple Screen"
    },
    "generator": "Sketchfab-15.70.0",
    "version": "2.0"
  },
  "bufferViews": [
    {
      "buffer": 0,
      "byteLength": 24432,
      "name": "floatBufferViews",
      "target": 34963
    },
    {
      "buffer": 0,
      "byteLength": 29112,
      "byteOffset": 24432,
      "byteStride": 8,
      "name": "floatBufferViews",
      "target": 34962
    },
    {
      "buffer": 0,
      "byteLength": 87336,
      "byteOffset": 53544,
      "byteStride": 12,
      "name": "floatBufferViews",
      "target": 34962
    }
  ],
  "buffers": [
    {
      "byteLength": 140880,
      "uri": "scene.bin"
    }
  ],
  "materials": [
    {
      "doubleSided": true,
      "name": "White_Plastic",
      "pbrMetallicRoughness": {
        "metallicFactor": 0.159091
      }
    },
    {
      "doubleSided": true,
      "name": "White_Plastic.001",
      "pbrMetallicRoughness": {
        "metallicFactor": 0.159091
      }
    },
    {
      "doubleSided": true,
      "name": "White_Plastic.002",
      "pbrMetallicRoughness": {
        "baseColorFactor": [
          0.0,
          0.0,
          0.0,
          1.0
        ],
        "metallicFactor": 0.195455,
        "roughnessFactor": 0.1
      }
    }
  ],
  "meshes": [
    {
      "name": "Object_0",
      "primitives": [
        {
          "attributes": {
            "NORMAL": 1,
            "POSITION": 0,
            "TEXCOORD_0": 2
          },
          "indices": 3,
          "material": 0,
          "mode": 4
        }
      ]
    },
    {
      "name": "Object_1",
      "primitives": [
        {
          "attributes": {
            "NORMAL": 5,
            "POSITION": 4,
            "TEXCOORD_0": 6
          },
          "indices": 7,
          "material": 0,
          "mode": 4
        }
      ]
    },
    {
      "name": "Object_2",
      "primitives": [
        {
          "attributes": {
            "NORMAL": 9,
            "POSITION": 8,
            "TEXCOORD_0": 10
          },
          "indices": 11,
          "material": 1,
          "mode": 4
        }
      ]
    },
    {
      "name": "Object_3",
      "primitives": [
        {
          "attributes": {
            "NORMAL": 13,
            "POSITION": 12,
            "TEXCOORD_0": 14
          },
          "indices": 15,
          "material": 0,
          "mode": 4
        }
      ]
    },
    {
      "name": "Object_4",
      "primitives": [
        {
          "attributes": {
            "NORMAL": 17,
            "POSITION": 16,
            "TEXCOORD_0": 18
          },
          "indices": 19,
          "material": 2,
          "mode": 4
        }
      ]
    }
  ],
  "nodes": [
    {
      "children": [
        1
      ],
      "matrix": [
        1.0,
        0.0,
        0.0,
        0.0,
        0.0,
        2.220446049250313e-16,
        -1.0,
        0.0,
        0.0,
        1.0,
        2.220446049250313e-16,
        0.0,
        0.0,
        0.0,
        0.0,
        1.0
      ],
      "name": "Sketchfab_model"
    },
    {
      "children": [
        2
      ],
      "name": "root"
    },
    {
      "children": [
        3,
        5,
        7,
        9,
        11
      ],
      "matrix": [
        1.0,
        0.0,
        0.0,
        0.0,
        0.0,
        2.220446049250313e-16,
        1.0,
        0.0,
        0.0,
        -1.0,
        2.220446049250313e-16,
        0.0,
        0.0,
        0.0,
        0.0,
        1.0
      ],
      "name": "GLTF_SceneRootNode"
    },
    {
      "children": [
        4
      ],
      "matrix": [
        0.22505907714366913,
        0.0,
        0.0,
        0.0,
        0.0,
        0.003100738162174821,
        0.0,
        0.0,
        0.0,
        0.0,
        0.08611880987882614,
        0.0,
        0.0,
        0.0,
        0.0,
        1.0
      ],
      "name": "Cube_0"
    },
    {
      "mesh": 0,
      "name": "Object_4"
    },
    {
      "children": [
        6
      ],
      "matrix": [
        0.02385621703792438,
        3.0295772627108292e-05,
        2.7765062345965212e-05,
        0.0,
        -0.0001745524757588435,
        0.14942932198370923,
        -0.01307092387941792,
        0.0,
        -3.0299386656477766e-05,
        0.0020787862540178584,
        0.02376548989081341,
        0.0,
        0.0,
        0.14999999105930328,
        -0.05999999865889549,
        1.0
      ],
      "name": "Cube.001_3"
    },
    {
      "mesh": 1,
      "name": "Object_6"
    },
    {
      "children": [
        8
      ],
      "matrix": [
        0.016699361984817633,
        -2.1209910407302155e-05,
        1.943243626039225e-05,
        0.0,
        -3.910037436308571e-05,
        -5.416321344345008e-07,
        0.03360051248915438,
        0.0,
        -2.1209566237814595e-05,
        -0.016699360250546014,
        -2.93870878290937e-07,
        0.0,
        0.0,
        0.20999999344348907,
        -0.019999999552965164,
        1.0
      ],
      "name": "Cube.002_4"
    },
    {
      "mesh": 2,
      "name": "Object_8"
    },
    {
      "children": [
        10
      ],
      "matrix": [
        0.24699999392032623,
        0.0,
        0.0,
        0.0,
        -0.0,
        0.1387645863587068,
        -0.009108326289252004,
        0.0,
        0.0,
        0.00045541622906325425,
        0.006938228016883475,
        0.0,
        0.0,
        0.20999999344348907,
        0.043905485421419144,
        1.0
      ],
      "name": "Cube.003_5"
    },
    {
      "mesh": 3,
      "name": "Object_10"
    },
    {
      "children": [
        12
      ],
      "matrix": [
        0.24699999392032623,
        0.0,
        0.0,
        0.0,
        -0.0,
        0.1387645863587068,
        -0.009108326289252004,
        0.0,
        0.0,
        0.00045541622906325425,
        0.006938228016883475,
        0.0,
        0.0,
        0.20999999344348907,
        0.043905485421419144,
        1.0
      ],
      "name": "Cube.004_6"
    },
    {
      "mesh": 4,
      "name": "Object_12"
    }
  ],
  "scene": 0,
  "scenes": [
    {
      "name": "Sketchfab_Scene",
      "nodes": [
        0
      ]
    }
  ]
}
