{
	"asset":{
		"generator":"Khronos glTF Blender I/O v4.1.63",
		"version":"2.0"
	},
	"extensionsUsed":[
		"EXT_texture_webp"
	],
	"extensionsRequired":[
		"EXT_texture_webp"
	],
	"scene":0,
	"scenes":[
		{
			"name":"Scene",
			"nodes":[
				0
			]
		}
	],
	"nodes":[
		{
			"mesh":0,
			"name":"Plane",
			"rotation":[
				0.7071068286895752,
				0,
				0,
				0.7071068286895752
			]
		}
	],
	"animations":[
		{
			"channels":[
				{
					"sampler":0,
					"target":{
						"node":0,
						"path":"weights"
					}
				}
			],
			"name":"KeyAction.005",
			"samplers":[
				{
					"input":8,
					"interpolation":"LINEAR",
					"output":9
				}
			]
		}
	],
	"materials":[
		{
			"doubleSided":true,
			"name":"Material.002",
			"pbrMetallicRoughness":{
				"baseColorTexture":{
					"index":0
				}
			}
		}
	],
	"meshes":[
		{
			"extras":{
				"targetNames":[
					"Key 1",
					"Key 2"
				]
			},
			"name":"Plane",
			"primitives":[
				{
					"attributes":{
						"POSITION":0,
						"NORMAL":1,
						"TEXCOORD_0":2
					},
					"indices":3,
					"material":0,
					"targets":[
						{
							"POSITION":4,
							"NORMAL":5
						},
						{
							"POSITION":6,
							"NORMAL":7
						}
					]
				}
			],
			"weights":[
				1,
				1
			]
		}
	],
	"textures":[
		{
			"extensions":{
				"EXT_texture_webp":{
					"source":0
				}
			},
			"sampler":0
		}
	],
	"images":[
		{
			"mimeType":"image/webp",
			"name":"Professional CV Resume",
			"uri":"Professional%20CV%20Resume.webp"
		}
	],
	"accessors":[
		{
			"bufferView":0,
			"componentType":5126,
			"count":72920,
			"max":[
				1.0382652282714844,
				-0.013553476892411709,
				0.9544334411621094
			],
			"min":[
				-0.9617347717285156,
				-0.013553476892411709,
				-1.0455665588378906
			],
			"type":"VEC3"
		},
		{
			"bufferView":1,
			"componentType":5126,
			"count":72920,
			"type":"VEC3"
		},
		{
			"bufferView":2,
			"componentType":5126,
			"count":72920,
			"type":"VEC2"
		},
		{
			"bufferView":3,
			"componentType":5125,
			"count":393216,
			"type":"SCALAR"
		},
		{
			"bufferView":4,
			"componentType":5126,
			"count":72920,
			"max":[
				0,
				0.06436314433813095,
				1.9996951818466187
			],
			"min":[
				0,
				-0.008684012107551098,
				-0.04212155193090439
			],
			"type":"VEC3"
		},
		{
			"bufferView":5,
			"componentType":5126,
			"count":72920,
			"type":"VEC3"
		},
		{
			"bufferView":6,
			"componentType":5126,
			"count":72920,
			"max":[
				0.056706562638282776,
				0.0763065293431282,
				1.9996951818466187
			],
			"min":[
				-2.003849983215332,
				-0.016576576977968216,
				-0.04212155565619469
			],
			"type":"VEC3"
		},
		{
			"bufferView":7,
			"componentType":5126,
			"count":72920,
			"type":"VEC3"
		},
		{
			"bufferView":8,
			"componentType":5126,
			"count":25,
			"max":[
				1
			],
			"min":[
				0
			],
			"type":"SCALAR"
		},
		{
			"bufferView":9,
			"componentType":5126,
			"count":50,
			"type":"SCALAR"
		}
	],
	"bufferViews":[
		{
			"buffer":0,
			"byteLength":875040,
			"byteOffset":0,
			"target":34962
		},
		{
			"buffer":0,
			"byteLength":875040,
			"byteOffset":875040,
			"target":34962
		},
		{
			"buffer":0,
			"byteLength":583360,
			"byteOffset":1750080,
			"target":34962
		},
		{
			"buffer":0,
			"byteLength":1572864,
			"byteOffset":2333440,
			"target":34963
		},
		{
			"buffer":0,
			"byteLength":875040,
			"byteOffset":3906304,
			"target":34962
		},
		{
			"buffer":0,
			"byteLength":875040,
			"byteOffset":4781344,
			"target":34962
		},
		{
			"buffer":0,
			"byteLength":875040,
			"byteOffset":5656384,
			"target":34962
		},
		{
			"buffer":0,
			"byteLength":875040,
			"byteOffset":6531424,
			"target":34962
		},
		{
			"buffer":0,
			"byteLength":100,
			"byteOffset":7406464
		},
		{
			"buffer":0,
			"byteLength":200,
			"byteOffset":7406564
		}
	],
	"samplers":[
		{
			"magFilter":9729,
			"minFilter":9987
		}
	],
	"buffers":[
		{
			"byteLength":7406764,
			"uri":"resume.bin"
		}
	]
}
