{
	"asset":{
		"generator":"Khronos glTF Blender I/O v4.1.63",
		"version":"2.0"
	},
	"extensionsUsed":[
		"EXT_texture_webp"
	],
	"extensionsRequired":[
		"EXT_texture_webp"
	],
	"scene":0,
	"scenes":[
		{
			"name":"Scene",
			"nodes":[
				0
			]
		}
	],
	"nodes":[
		{
			"mesh":0,
			"name":"Plane",
			"rotation":[
				0.7071068286895752,
				0,
				0,
				0.7071068286895752
			]
		}
	],
	"animations":[
		{
			"channels":[
				{
					"sampler":0,
					"target":{
						"node":0,
						"path":"weights"
					}
				}
			],
			"name":"KeyAction",
			"samplers":[
				{
					"input":10,
					"interpolation":"CUBICSPLINE",
					"output":11
				}
			]
		}
	],
	"materials":[
		{
			"doubleSided":true,
			"name":"Material.002",
			"pbrMetallicRoughness":{
				"baseColorTexture":{
					"index":0
				}
			}
		}
	],
	"meshes":[
		{
			"extras":{
				"targetNames":[
					"Key 1",
					"Key 2",
					"Key 3"
				]
			},
			"name":"Plane",
			"primitives":[
				{
					"attributes":{
						"POSITION":0,
						"NORMAL":1,
						"TEXCOORD_0":2
					},
					"indices":3,
					"material":0,
					"targets":[
						{
							"POSITION":4,
							"NORMAL":5
						},
						{
							"POSITION":6,
							"NORMAL":7
						},
						{
							"POSITION":8,
							"NORMAL":9
						}
					]
				}
			],
			"weights":[
				1,
				1,
				1
			]
		}
	],
	"textures":[
		{
			"extensions":{
				"EXT_texture_webp":{
					"source":0
				}
			},
			"sampler":0
		}
	],
	"images":[
		{
			"mimeType":"image/webp",
			"name":"Professional CV Resume",
			"uri":"Professional%20CV%20Resume.webp"
		}
	],
	"accessors":[
		{
			"bufferView":0,
			"componentType":5126,
			"count":91652,
			"max":[
				1.299999475479126,
				-7.006961233457787e-09,
				0.7999975681304932
			],
			"min":[
				-0.700000524520874,
				-7.006961233457787e-09,
				-1.2000024318695068
			],
			"type":"VEC3"
		},
		{
			"bufferView":1,
			"componentType":5126,
			"count":91652,
			"type":"VEC3"
		},
		{
			"bufferView":2,
			"componentType":5126,
			"count":91652,
			"type":"VEC2"
		},
		{
			"bufferView":3,
			"componentType":5125,
			"count":393216,
			"type":"SCALAR"
		},
		{
			"bufferView":4,
			"componentType":5126,
			"count":91652,
			"max":[
				0,
				0.018210016191005707,
				1.9705557823181152
			],
			"min":[
				0,
				0,
				-0.003373473882675171
			],
			"type":"VEC3"
		},
		{
			"bufferView":5,
			"componentType":5126,
			"count":91652,
			"type":"VEC3"
		},
		{
			"bufferView":6,
			"componentType":5126,
			"count":91652,
			"max":[
				0.004065424203872681,
				0.10885058343410492,
				1.0797252655029297
			],
			"min":[
				-1.9637762308120728,
				-0.006789715029299259,
				-1.0010976791381836
			],
			"type":"VEC3"
		},
		{
			"bufferView":7,
			"componentType":5126,
			"count":91652,
			"type":"VEC3"
		},
		{
			"bufferView":8,
			"componentType":5126,
			"count":91652,
			"max":[
				0.9002916812896729,
				0.1785515695810318,
				1.0797252655029297
			],
			"min":[
				-1.1527009010314941,
				-0.008956782519817352,
				-1.0010976791381836
			],
			"type":"VEC3"
		},
		{
			"bufferView":9,
			"componentType":5126,
			"count":91652,
			"type":"VEC3"
		},
		{
			"bufferView":10,
			"componentType":5126,
			"count":4,
			"max":[
				1.25
			],
			"min":[
				0
			],
			"type":"SCALAR"
		},
		{
			"bufferView":11,
			"componentType":5126,
			"count":36,
			"type":"SCALAR"
		}
	],
	"bufferViews":[
		{
			"buffer":0,
			"byteLength":1099824,
			"byteOffset":0,
			"target":34962
		},
		{
			"buffer":0,
			"byteLength":1099824,
			"byteOffset":1099824,
			"target":34962
		},
		{
			"buffer":0,
			"byteLength":733216,
			"byteOffset":2199648,
			"target":34962
		},
		{
			"buffer":0,
			"byteLength":1572864,
			"byteOffset":2932864,
			"target":34963
		},
		{
			"buffer":0,
			"byteLength":1099824,
			"byteOffset":4505728,
			"target":34962
		},
		{
			"buffer":0,
			"byteLength":1099824,
			"byteOffset":5605552,
			"target":34962
		},
		{
			"buffer":0,
			"byteLength":1099824,
			"byteOffset":6705376,
			"target":34962
		},
		{
			"buffer":0,
			"byteLength":1099824,
			"byteOffset":7805200,
			"target":34962
		},
		{
			"buffer":0,
			"byteLength":1099824,
			"byteOffset":8905024,
			"target":34962
		},
		{
			"buffer":0,
			"byteLength":1099824,
			"byteOffset":10004848,
			"target":34962
		},
		{
			"buffer":0,
			"byteLength":16,
			"byteOffset":11104672
		},
		{
			"buffer":0,
			"byteLength":144,
			"byteOffset":11104688
		}
	],
	"samplers":[
		{
			"magFilter":9729,
			"minFilter":9987
		}
	],
	"buffers":[
		{
			"byteLength":11104832,
			"uri":"resume-animated.bin"
		}
	]
}
