<svg version="1.0" xmlns="http://www.w3.org/2000/svg" width="1207.000000pt" height="1280.000000pt" viewBox="0 0 1207.000000 1280.000000" preserveAspectRatio="xMidYMid meet">
  <g transform="translate(0.000000,1280.000000) scale(0.100000,-0.100000)" fill="#ff0000" stroke="none">
<path d="M8175 12786 c-280 -68 -666 -492 -845 -926 -111 -270 -214 -833 -300 -1647 -22 -206 -43 -303 -84 -397 -103 -232 -335 -420 -535 -433 -91 -6 -143 6 -207 50 -73 49 -107 118 -112 226 -5 108 13 165 109 349 114 217 169 409 169 585 0 120 -21 213 -69 312 -64 131 -125 187 -309 282 -103 53 -149 56 -237 14 -96 -45 -129 -93 -171 -248 -27 -97 -27 -102 -28 -438 -1 -291 -3 -345 -17 -376 -34 -74 -117 -147 -209 -183 -71 -29 -201 -45 -283 -35 -89 10 -127 23 -195 66 -151 96 -272 286 -497 783 -164 362 -198 423 -285 511 -218 221 -487 208 -735 -37 -39 -38 -88 -96 -109 -128 -44 -66 -93 -210 -103 -297 -12 -116 29 -260 137 -484 139 -286 211 -355 498 -475 247 -103 301 -139 343 -233 21 -45 24 -67 24 -172 0 -116 -1 -122 -33 -183 -39 -75 -105 -145 -158 -167 -20 -8 -80 -20 -133 -26 -53 -5 -116 -15 -140 -21 -70 -18 -222 -142 -257 -210 -9 -17 -27 -70 -40 -117 -28 -101 -32 -259 -10 -381 66 -356 65 -333 6 -397 -120 -128 -249 -175 -346 -125 -21 11 -84 59 -139 106 -220 190 -430 307 -680 376 -215 60 -302 97 -390 164 -22 16 -170 159 -330 316 -280 275 -411 396 -455 420 -30 16 -83 -4 -115 -42 -92 -109 -146 -384 -96 -493 40 -89 114 -126 401 -200 284 -74 382 -112 505 -200 118 -83 196 -185 330 -430 48 -88 107 -188 132 -222 75 -107 234 -236 454 -369 154 -93 209 -161 209 -263 0 -26 -8 -42 -35 -67 -80 -75 -248 -105 -482 -86 -382 32 -493 86 -1103 535 -526 387 -572 414 -754 437 -156 19 -304 -27 -373 -118 -36 -48 -80 -177 -89 -262 -10 -99 40 -272 113 -390 50 -79 370 -394 468 -459 150 -100 387 -198 575 -238 62 -13 128 -18 245 -18 170 1 203 6 398 61 306 86 660 67 990 -53 263 -96 354 -236 266 -411 -39 -78 -82 -115 -211 -179 -141 -70 -264 -114 -469 -168 -96 -25 -204 -57 -241 -71 -87 -33 -168 -92 -207 -151 -41 -61 -75 -173 -75 -243 0 -141 141 -250 323 -250 103 0 139 14 222 88 109 97 424 358 492 408 185 137 407 77 407 -110 0 -71 -26 -137 -165 -411 -232 -457 -352 -642 -609 -940 -434 -502 -517 -619 -587 -825 -67 -201 -85 -381 -54 -532 22 -104 53 -160 147 -266 172 -192 305 -267 549 -308 203 -34 332 7 494 155 134 122 205 234 256 406 22 72 24 97 23 260 -1 156 -6 210 -37 400 -50 304 -60 408 -55 549 4 128 14 161 60 202 86 79 196 70 314 -24 135 -108 213 -290 214 -499 0 -160 -19 -232 -153 -569 -137 -346 -189 -543 -191 -734 -1 -132 8 -157 92 -231 89 -80 211 -115 366 -107 98 5 170 39 217 102 36 49 85 199 100 304 27 187 -23 688 -107 1079 -30 138 -30 194 -3 249 75 156 290 196 512 96 89 -41 122 -73 232 -234 174 -254 187 -264 319 -256 161 10 304 125 356 285 32 98 28 137 -25 258 -51 117 -70 196 -55 225 32 59 122 92 183 66 27 -11 52 -48 161 -237 679 -1173 830 -1534 1160 -2771 106 -397 136 -480 215 -596 101 -149 266 -282 402 -323 108 -33 176 -12 265 82 68 74 106 144 156 290 37 112 42 136 46 245 9 258 -66 417 -415 879 -413 547 -588 783 -673 905 -443 643 -782 1322 -806 1615 l-6 70 33 19 c43 25 179 34 258 16 80 -17 187 -72 264 -136 128 -106 241 -269 434 -629 162 -300 288 -433 466 -487 116 -35 194 -10 319 99 146 128 226 239 268 371 36 113 37 138 9 197 -44 94 -292 327 -418 393 -66 35 -216 87 -394 137 -176 49 -216 71 -322 179 -140 142 -195 252 -202 406 -5 82 -4 87 27 133 88 131 175 129 539 -10 502 -192 1027 -515 1531 -943 277 -235 314 -266 410 -337 177 -130 295 -188 487 -239 127 -34 232 -37 288 -8 53 27 77 65 116 181 58 174 29 274 -123 425 -79 79 -100 94 -210 147 -68 33 -247 103 -398 155 -548 191 -651 233 -1035 420 -430 209 -630 345 -761 519 -66 87 -127 217 -132 282 -4 52 -3 54 44 106 81 87 159 107 274 73 30 -9 120 -49 200 -89 349 -174 651 -258 834 -231 87 13 139 81 190 247 54 176 38 213 -159 376 -295 245 -358 353 -288 492 59 119 201 236 350 288 70 25 91 28 213 28 113 0 147 -4 210 -23 159 -50 342 -167 666 -427 256 -207 280 -223 343 -241 155 -46 352 61 438 236 43 89 93 263 93 325 0 105 -78 203 -255 321 -207 137 -451 207 -1045 299 -278 43 -348 58 -455 96 -167 60 -297 200 -340 366 -21 80 -20 254 1 299 32 68 180 172 354 250 231 102 401 147 565 148 214 1 359 -53 718 -266 254 -151 435 -231 642 -283 322 -82 579 -47 712 98 70 76 119 236 110 362 -14 209 -109 352 -457 688 -182 177 -291 261 -429 331 -361 184 -627 218 -987 126 -138 -35 -223 -75 -325 -152 -95 -72 -169 -157 -292 -338 -150 -220 -253 -310 -457 -396 -138 -58 -228 -77 -344 -72 -82 3 -111 9 -157 30 -161 74 -212 221 -174 506 22 162 17 270 -13 333 -12 25 -48 71 -79 102 -120 120 -211 137 -478 92 -179 -31 -254 -30 -333 5 -97 43 -178 155 -201 277 -23 116 55 422 204 804 145 372 322 654 569 907 129 133 243 230 437 375 168 125 235 189 244 234 4 15 13 43 21 61 19 44 18 84 -6 167 -35 124 -96 231 -180 315 -41 42 -98 88 -126 102 -102 55 -221 70 -329 44z" />
</g>
</svg>