<svg version="1.0" xmlns="http://www.w3.org/2000/svg"
 width="1257.000000pt" height="1280.000000pt" viewBox="0 0 1257.000000 1280.000000" preserveAspectRatio="xMidYMid meet">
 <g transform="translate(0.000000,1280.000000) scale(0.100000,-0.100000)" fill="#000000" stroke="none"> <path d="3 0 12 -9 22 -21z m526 -81 c-3 -13 -13 -40 -22 -60 -13 -31 -21 -38 -45 -38-25 0 -28 3 -28 35 0 44 37 85 75 85 23 0 25 -3 20 -22z"/>
<path d="M8220 11751 c-180 -49 -170 -44 -137 -66 42 -27 72 -22 185 36 15781 152 84 -48 30z"/>
<path d="M8236 11619 c-14 -11 -26 -27 -26 -34 0 -10 18 -8 78 12 102 34 10943 35 43 -46 0 -67 -5 -87 -21z"/>
<path d="M9867 11284 c-130 -24 -197 -46 -197 -62 0 -14 106 6 250 48 153 44134 50 -53 14z"/>
<path d="52 13 c29 8 59 14 67 14 18 0 111 59 111 71 0 5 -8 8 -17 7 -10 -1 -38 -3 -63-5z"/>
<path d="84 24 128 12 l47 -14 3 -165 2 -166 55 9 c107 16 123 33 110 113 -9 62 -87216 -135 269 -64 69 -133 92 -199 65z"/>
<path d="116 24 123 28 8 4 -51 11 -130 14 -137 6 -215 21 -219 42 -1 6 40 33 92 60l94 50 -60 6 c-33 4 -112 7 -176 8 -105 1 -119 -1 -150 -22z"/>
<path d="M5451 6900 c-6 -28 -11 -57 -11 -64 0 -16 65 -76 82 -76 16 0 2 117-20 153 -27 47 -39 44 -51 -13z"/>
<path d="M1644 6463 c-14 -3 -25 -16 -32 -40 -6 -21 -10 -39 -7 -41 11 -11 6027 72 56 14 34 14 34 -33 25z"/>
<path d="M1266 6062 c-2 -4 -14 -44 -25 -87 -26 -98 -36 -202 -23 -235 l9 -2515 35 c9 19 43 97 77 173 33 76 61 140 61 142 0 8 -109 5 -114 -3z"/>
<path d="M3814 7965 c-28 -68 -54 -187 -69 -315 -18 -147 -20 -520 -3 -480 2254 37 182 38 320 1 174 11 272 39 404 23 105 21 133 -5 71z"/>
<path d="242 -14 306 -44 27 -13 131 -74 229 -135 99 -61 185 -111 191 -111 18 0 27 7315 126 -14 63 -33 95 -75 133 -98 86 -230 121 -480 127 l-180 5 -148 -40z"/>
<path d="-70 -36 -19 c-40 -22 -41 -23 -19 -54 9 -13 14 -26 11 -28 -7 -7 -128 42 -19779 -70 38 -130 79 -153 104 -16 19 -16 21 2 37 49 45 116 50 326 27z"/>
<path d="-5 -183 -25 -115 -23 -164 8 -193 14 -13 28 -21 31 -17 10 10 34 254 34 357 095 -25 439 -38 515 l-7 40 -33 -52z"/>
<path d="M5420 5234 c-18 -54 -5 -135 36 -223 34 -72 36 -75 46 -51 17 42 3159 -27 233 -15 37 -31 69 -35 72 -5 3 -14 -11 -20 -31z"/>
<path d="M9870 4971 c0 -5 -3 -16 -6 -25 -5 -14 3 -16 57 -16 l64 1 -35 18c-48 25 -80 34 -80 22z"/>
<path d="M4240 4920 c-8 -5 -10 -10 -5 -10 6 0 17 5 25 10 8 5 11 10 5 10 -50 -17 -5 -25 -10z"/>
<path d="M4175 4880 c-3 -5 -2 -10 4 -10 5 0 13 5 16 10 3 6 2 10 -4 10 -5 0-13 -4 -16 -10z"/>
<path d="-126 -9 6 -17 17 -19 25 -2 9 47 66 108 129 67 68 108 119 105 127 -3 7 -5 16-5 18 0 2 -11 4 -25 4 -18 0 -45 -20 -93 -68z"/>
<path d="-96 -111 -156 -173 -179 -26 -10 -50 -15 -53 -12 -11 10 78 121 184 228 106109 122 140 75 147 -15 2 -37 -11 -68 -39z"/>
<path d="M9430 4342 c-86 -55 -136 -116 -125 -152 10 -33 34 -23 94 38 38 4070 64 101 74 37 12 45 19 45 39 0 38 -57 38 -115 1z"/>
<path d="M3071 4297 c-47 -48 -88 -123 -80 -146 5 -12 119 56 160 95 33 32 3754 12 76 -35 29 -41 28 -92 -25z"/>
<path d="M8561 4044 l-1 -152 29 -12 c17 -6 35 -9 40 -5 19 11 12 81 -18 166-16 46 -34 100 -39 119 -8 27 -10 2 -11 -116z"/>
<path d="M5 4121 c-3 -5 -1 -12 5 -16 5 -3 10 1 10 9 0 18 -6 21 -15 7z"/>
<path d="-56 184 -1 105 -2 104 104 157 64 32 72 40 98 91 16 33 60 91 107 140 60 6377 85 65 90 -27 10 -140 18 -147 10z"/>
<path d="-38 -7 86 -7 86 31 7 c33 7 60 38 91 107 24 52 24 62 4 82 -28 28 -42 17 -86-66z"/>
<path d="14 65 37 156 53 109 20 204 48 204 61 0 7 -130 19 -209 19 -31 -1 -72 -7 -91-14z"/>
<path d="M2765 3148 c-111 -60 -128 -76 -64 -58 19 6 48 23 64 40 31 32 31 350 18z"/>
<path d="M7853 3035 c5 -122 64 -355 100 -393 27 -29 86 -66 93 -59 6 6 -171510 -187 537 -7 10 -8 -20 -6 -85z"/>
<path d="M7780 2565 c0 -86 2 -88 74 -83 l47 3 -53 78 c-29 42 -56 77 -60 77-5 0 -8 -34 -8 -75z"/>
<path d="M7925 2443 c-24 -3 -36 -14 -58 -52 -34 -61 -36 -101 -5 -101 35 0161 79 154 97 -3 8 -6 26 -6 39 0 25 -8 27 -85 17z"/>
<path d="M4496 1333 l-48 -58 34 -8 c18 -5 40 -15 49 -23 8 -8 19 -14 22 -144 0 7 36 7 80 0 44 -4 80 -8 80 -4 0 -29 -26 -56 -57z"/>
<path d="M3648 135 c-6 -30 -3 -43 8 -33 3 4 4 19 2 35 l-3 28 -7 -30z"/>
<path d="M3548 67 c-43 -16 -58 -27 -61 -44 -5 -26 8 -29 62 -13 38 11 81 4681 67 0 17 -12 15 -82 -10z"/>
</g>
</svg>
