<svg version="1.0" xmlns="http://www.w3.org/2000/svg"
 width="1280.000000pt" height="1194.000000pt" viewBox="0 0 1280.000000 1194.000000"
 preserveAspectRatio="xMidYMid meet">
<g transform="translate(0.000000,1194.000000) scale(0.100000,-0.100000)"
fill="#ffffff" stroke="none">
<path d="M10248 11930 c-59 -4 -133 -16 -165 -25 -201 -59 -976 -456 -1171
-600 -42 -32 -196 -178 -342 -325 -251 -252 -474 -462 -638 -599 -107 -90
-132 -86 -344 50 -62 40 -178 104 -258 142 -185 87 -184 87 -392 -15 -258
-126 -555 -342 -680 -496 -35 -42 -78 -90 -97 -106 -44 -39 -230 -272 -291
-364 -65 -99 -78 -146 -55 -214 25 -78 61 -135 103 -163 23 -15 81 -34 154
-50 218 -47 306 -99 211 -124 -21 -6 -130 -24 -243 -41 -567 -86 -1246 -258
-1485 -377 -155 -77 -369 -239 -559 -423 -155 -151 -241 -259 -317 -400 -34
-63 -102 -185 -152 -270 -50 -85 -103 -184 -118 -220 -15 -36 -62 -202 -104
-370 -42 -167 -87 -332 -100 -365 -15 -40 -24 -95 -29 -165 -13 -202 -56 -428
-187 -985 -122 -519 -155 -645 -219 -840 -57 -175 -94 -313 -140 -520 -28
-124 -55 -200 -89 -244 -36 -47 -38 -129 -10 -316 19 -129 22 -186 21 -405 -1
-186 2 -261 11 -276 6 -12 26 -45 44 -74 17 -30 42 -90 53 -134 34 -127 86
-258 170 -431 85 -175 140 -259 249 -379 191 -210 360 -324 671 -449 162 -66
268 -99 415 -127 61 -12 209 -46 330 -76 231 -57 344 -74 460 -67 499 26 851
88 1095 190 47 19 112 47 145 60 34 15 81 26 110 27 44 1 50 -1 53 -21 2 -14
-10 -37 -35 -65 -21 -24 -51 -59 -65 -79 -34 -46 -98 -167 -98 -184 0 -22 40
-54 82 -67 58 -17 63 -30 34 -76 -30 -47 -66 -150 -66 -187 0 -40 46 -80 110
-95 73 -16 97 -33 105 -72 4 -18 14 -51 23 -72 l15 -39 101 6 c56 4 170 16
254 27 180 23 183 22 251 -64 l43 -55 89 44 c49 25 99 45 111 45 13 0 43 -16
67 -35 24 -19 47 -35 50 -36 141 -12 164 -17 209 -50 63 -45 123 -47 210 -5
l61 29 78 -51 c100 -66 123 -70 214 -42 66 21 78 22 119 10 25 -7 81 -16 125
-20 90 -7 114 -17 145 -60 50 -71 112 -75 235 -17 l74 36 31 -38 c55 -71 147
-93 213 -52 49 30 74 28 82 -9 4 -16 19 -39 33 -51 39 -30 108 -21 203 27 99
49 218 100 278 118 49 14 50 14 86 -12 21 -15 56 -44 79 -64 49 -43 72 -53
142 -63 43 -5 54 -3 65 11 41 51 82 82 145 107 146 60 268 156 320 253 18 33
18 34 -2 61 -11 15 -77 59 -145 97 -145 82 -179 104 -179 114 0 4 24 20 53 36
91 50 126 77 161 127 19 26 44 50 54 53 11 4 25 20 32 37 23 56 -16 99 -91 99
-39 0 -99 26 -99 43 0 7 22 35 50 61 55 52 63 82 30 111 -11 10 -81 39 -156
66 -75 26 -154 60 -176 76 -53 36 -186 169 -193 193 -3 10 -30 32 -59 49 -57
32 -136 114 -162 170 -15 31 -15 51 -5 190 21 280 29 330 80 501 49 164 81
254 139 382 46 101 87 237 117 388 36 183 108 469 141 560 32 91 158 342 213
425 62 94 161 208 252 291 139 126 225 180 459 288 78 36 107 56 162 113 111
113 155 176 268 378 87 156 140 235 250 375 90 115 112 153 160 280 18 47 74
177 125 290 51 113 109 248 130 300 42 104 174 517 225 700 52 188 85 296 143
465 85 245 175 639 222 976 21 143 34 1321 17 1484 -13 127 -28 170 -106 304
-70 119 -112 208 -180 383 -24 64 -59 145 -76 180 -42 84 -151 217 -312 378
-111 111 -158 150 -289 236 -263 175 -415 235 -659 264 -120 14 -780 21 -922
10z m922 -144 c199 -38 323 -87 478 -189 175 -114 353 -267 494 -422 129 -142
176 -218 238 -387 59 -161 103 -253 195 -413 46 -79 67 -127 74 -170 32 -184
43 -868 17 -1072 -9 -65 -22 -253 -31 -418 -20 -410 -45 -563 -122 -760 -104
-268 -206 -595 -259 -834 -57 -257 -75 -304 -269 -721 -78 -168 -159 -348
-179 -400 -20 -52 -47 -115 -59 -140 -21 -43 -122 -160 -138 -160 -4 0 15 51
42 113 107 240 124 360 94 689 l-17 196 23 34 c13 18 55 69 94 113 190 216
195 226 206 401 5 72 15 151 23 175 22 61 21 64 -21 90 -21 13 -62 43 -92 67
-84 67 -127 86 -196 87 -78 0 -116 -22 -265 -159 -63 -58 -215 -187 -338 -287
-233 -189 -251 -211 -183 -217 81 -8 181 55 379 239 300 280 363 329 417 329
10 0 37 -20 60 -44 35 -35 45 -56 58 -112 22 -97 28 -170 18 -232 -10 -66 -60
-140 -207 -310 l-106 -124 17 -185 c20 -211 16 -390 -10 -500 -35 -143 -99
-249 -257 -423 l-68 -76 -102 -12 c-131 -15 -232 -15 -275 0 -40 15 -61 5 -81
-36 -12 -24 -12 -30 2 -45 41 -45 277 -82 399 -63 67 11 71 13 238 131 32 23
24 -6 -37 -130 -87 -177 -152 -277 -229 -354 -59 -59 -93 -82 -213 -144 -180
-93 -302 -178 -466 -322 -189 -167 -214 -187 -292 -224 -40 -19 -87 -49 -105
-67 -33 -32 -33 -33 -11 -36 13 -2 43 9 71 27 26 17 51 31 54 31 16 0 4 -37
-34 -111 -46 -88 -77 -119 -120 -119 -19 0 -43 -12 -69 -36 -68 -62 -45 -86
37 -38 25 14 47 23 50 21 14 -14 -38 -85 -109 -149 -43 -39 -88 -89 -100 -109
-12 -21 -39 -52 -60 -69 -25 -21 -38 -39 -38 -55 0 -33 29 -33 80 1 43 28 69
62 85 109 14 42 30 33 29 -18 -1 -43 -99 -440 -149 -602 -40 -132 -112 -314
-141 -358 -16 -24 -41 -45 -68 -56 -54 -24 -170 -159 -220 -259 -20 -38 -14
-52 20 -52 43 0 82 28 134 97 47 63 50 64 50 36 0 -155 -206 -553 -370 -714
-68 -67 -238 -194 -335 -249 -29 -17 -93 -45 -141 -64 -49 -19 -112 -43 -141
-55 -142 -56 -672 -50 -874 11 -22 6 -58 27 -81 47 l-42 36 -121 5 c-93 4
-127 9 -148 23 -15 9 -27 22 -27 28 0 37 81 101 239 187 125 69 200 124 329
241 169 154 195 171 253 171 75 0 112 40 197 208 38 75 89 175 114 222 53 97
104 230 158 410 45 148 64 240 85 415 9 72 18 139 21 150 15 71 76 563 89 725
17 206 45 398 75 515 10 38 32 123 49 188 33 126 40 221 18 252 -20 27 -62 12
-96 -35 -43 -60 -148 -333 -161 -420 -21 -139 -80 -484 -101 -585 -34 -171
-175 -683 -234 -851 -31 -87 -76 -229 -102 -314 -25 -85 -56 -176 -69 -202
-13 -26 -42 -107 -63 -180 -59 -201 -70 -220 -194 -355 -272 -296 -672 -574
-849 -591 -33 -2 -90 1 -128 8 -37 7 -79 10 -94 6 -14 -3 -51 -28 -80 -55 -39
-35 -70 -54 -112 -66 -32 -9 -74 -25 -94 -35 -19 -10 -120 -43 -225 -74 -104
-32 -291 -91 -415 -131 -124 -41 -281 -88 -350 -105 -266 -65 -609 -88 -838
-55 -239 34 -651 132 -906 216 -363 119 -532 240 -666 476 -83 147 -218 420
-258 522 -67 168 -169 561 -179 688 -7 77 5 81 50 16 98 -142 264 -293 472
-428 253 -165 421 -257 590 -322 49 -19 133 -57 187 -84 95 -48 105 -50 256
-69 86 -11 254 -33 372 -50 393 -55 559 -66 823 -52 373 19 644 59 809 118
166 60 462 215 576 303 273 210 319 252 445 411 33 41 87 115 120 165 33 49
82 118 109 152 l49 62 -7 59 c-6 56 -3 66 74 263 92 234 108 278 192 559 34
113 71 227 81 253 11 26 35 120 55 207 19 88 53 213 75 277 58 175 57 185 -47
367 -47 83 -111 184 -142 225 -144 189 -469 536 -717 764 -459 422 -893 630
-2405 1149 -96 33 -197 72 -225 86 -49 26 -54 27 -220 25 -177 -1 -368 -15
-493 -34 -40 -7 -76 -9 -80 -5 -9 10 68 157 142 270 105 161 394 431 581 542
106 63 339 179 421 210 70 26 553 143 799 193 310 63 636 110 670 97 20 -7 19
-38 -5 -121 -11 -39 -27 -120 -35 -182 -17 -129 -34 -187 -80 -263 -36 -60
-75 -167 -75 -203 0 -26 39 -67 85 -89 45 -23 203 -75 276 -93 119 -28 209
-16 253 34 32 35 36 119 26 536 -13 557 -27 696 -85 825 -19 41 -54 129 -78
195 -58 158 -81 202 -130 248 -45 41 -44 60 4 84 54 28 889 11 1115 -22 140
-21 186 -34 449 -126 285 -100 439 -172 488 -230 69 -80 147 -255 147 -330 0
-30 -12 -53 -61 -119 -111 -151 -222 -353 -254 -466 -30 -104 -81 -202 -114
-222 -43 -24 -45 -39 -14 -81 41 -54 366 -375 473 -466 214 -182 257 -223 368
-349 222 -250 312 -328 485 -419 62 -32 62 -32 207 -31 153 0 201 9 284 50
120 60 339 263 453 421 39 54 110 181 186 333 l122 245 44 15 c61 21 68 36 42
91 -34 71 -127 182 -438 519 -313 340 -353 378 -485 463 -170 110 -270 196
-388 334 -22 25 -48 35 -204 77 -98 26 -210 54 -250 62 -95 19 -291 28 -341
17 -53 -13 -71 -5 -171 70 -45 34 -135 89 -201 122 -116 59 -118 61 -145 116
-36 77 -125 155 -244 215 -52 26 -99 53 -105 60 -17 20 6 45 231 256 113 105
299 281 414 391 321 306 411 379 605 491 210 120 624 332 767 392 60 25 134
49 164 54 30 5 255 7 500 5 359 -2 461 -6 530 -19z m-3948 -1299 c40 -24 134
-81 208 -127 133 -82 342 -190 369 -190 24 0 174 -72 244 -116 80 -52 87 -76
33 -130 -41 -41 -56 -42 -201 -9 -61 14 -208 39 -327 56 -120 17 -239 36 -265
42 -44 11 -48 15 -54 47 -6 39 -27 84 -72 150 -67 100 -109 124 -141 78 -22
-32 -20 -61 11 -155 40 -122 19 -124 -76 -7 -34 41 -66 74 -71 74 -16 0 -37
-41 -60 -117 l-21 -71 -167 -4 c-92 -2 -173 -6 -181 -9 -8 -2 -16 4 -19 13 -9
42 163 179 374 297 61 34 157 98 215 141 57 44 109 80 116 80 7 0 45 -19 85
-43z m-907 -690 c33 -51 79 -344 65 -412 -5 -26 -11 -30 -36 -29 -29 1 -319
129 -329 144 -6 10 145 212 203 273 52 52 74 58 97 24z m2635 -267 c131 -17
292 -48 386 -76 251 -72 552 -296 855 -634 71 -80 185 -198 253 -263 146 -138
269 -280 286 -331 10 -30 9 -45 -6 -89 -19 -58 -215 -462 -236 -489 -8 -9 -39
-27 -69 -41 -61 -27 -96 -63 -187 -195 -90 -128 -207 -238 -311 -290 -113 -57
-145 -56 -267 5 -131 65 -185 112 -322 275 -133 159 -260 291 -339 349 -29 22
-70 63 -92 93 -22 29 -127 131 -234 225 -116 101 -199 183 -207 200 -17 42 5
109 100 297 69 136 110 204 226 367 89 127 87 292 -6 488 -16 35 -30 71 -30
80 0 30 40 49 90 43 14 -2 63 -8 110 -14z m-4405 -2105 c48 -9 146 -37 219
-64 1110 -413 1499 -566 1666 -658 248 -138 660 -453 660 -505 0 -9 -20 -31
-45 -48 -49 -34 -86 -83 -133 -176 -39 -78 -78 -123 -119 -140 -51 -22 -95
-17 -139 14 -47 35 -104 90 -104 102 0 20 -65 81 -121 116 -32 19 -59 38 -59
40 0 3 17 28 39 57 51 70 97 153 112 204 15 51 2 73 -42 73 -38 0 -129 -74
-152 -126 -24 -50 -62 -90 -98 -103 -22 -8 -37 -5 -71 12 -53 27 -81 67 -97
143 -18 87 -21 94 -36 94 -19 0 -55 -48 -55 -74 0 -25 -17 -46 -38 -46 -17 0
-14 12 22 117 14 40 33 120 42 179 21 127 17 139 -47 138 -68 -2 -87 -34 -138
-231 -6 -22 -19 -51 -29 -63 l-17 -21 -115 16 c-169 23 -240 46 -254 80 -3 8
15 58 40 111 24 52 49 116 54 142 5 26 15 66 23 88 20 55 5 88 -42 92 -50 5
-92 -30 -188 -156 -91 -119 -158 -186 -210 -208 -44 -19 -55 -18 -99 12 -21
15 -73 35 -114 46 -77 19 -180 62 -180 74 0 19 126 174 142 174 14 0 9 -60 -9
-111 -20 -57 -11 -84 28 -84 17 0 30 11 47 43 13 23 30 42 38 42 20 0 18 61
-3 98 -17 29 -16 31 10 65 42 55 32 73 -23 42 -14 -8 -33 -14 -44 -15 -20 0
-20 0 0 172 6 49 4 57 -13 67 -28 14 -87 -4 -111 -34 -11 -14 -37 -71 -57
-127 -84 -229 -133 -289 -262 -323 -111 -29 -175 -10 -214 64 -21 40 -14 62
32 99 30 25 36 50 19 83 -6 10 -15 45 -21 76 -15 79 -25 90 -56 61 -23 -22
-25 -22 -38 -5 -7 9 -18 45 -24 80 -23 119 -46 157 -97 157 -24 0 -39 -8 -54
-27 -24 -30 -24 -44 0 -236 16 -130 -7 -200 -91 -286 -54 -54 -88 -71 -146
-71 -62 0 -62 2 -34 88 23 68 37 240 24 297 -9 36 -12 40 -38 38 -16 -1 -38
-11 -49 -22 -17 -18 -20 -32 -18 -98 2 -64 -1 -84 -18 -111 -18 -29 -71 -62
-100 -62 -41 0 39 334 99 413 58 76 111 99 266 116 215 24 560 27 680 6z
m-1105 -769 c0 -8 -5 -18 -11 -22 -14 -8 -33 11 -25 25 10 16 36 13 36 -3z
m1860 -70 c0 -24 -36 -60 -53 -53 -24 9 -21 33 5 51 28 20 48 20 48 2z m-1626
-22 c21 -8 21 -53 0 -82 -31 -44 -84 -19 -84 40 0 41 38 60 84 42z m771 -13
c9 -15 -24 -28 -85 -35 -72 -8 -99 7 -50 28 39 17 126 21 135 7z m183 -43 c17
-17 15 -73 -2 -87 -8 -7 -27 -11 -43 -9 -25 3 -28 8 -31 42 -2 21 -1 44 2 52
7 17 58 18 74 2z m230 -147 c2 -13 -1 -28 -7 -34 -16 -16 -50 19 -44 44 8 29
47 21 51 -10z m782 -22 c136 -37 211 -79 143 -79 -101 0 -263 53 -263 84 0 22
30 20 120 -5z m-1620 -38 c5 -11 10 -37 10 -58 0 -22 5 -44 12 -51 23 -23 3
-133 -22 -117 -4 2 -10 22 -14 44 -3 23 -20 56 -41 82 -42 50 -44 87 -5 106
35 18 48 16 60 -6z m-140 -41 c23 -23 24 -31 9 -83 -13 -50 -29 -43 -53 21
-27 76 -3 109 44 62z m360 6 c0 -15 -24 -66 -31 -66 -12 0 -11 27 1 51 9 16
30 27 30 15z m-522 -28 c7 -7 12 -29 12 -50 0 -63 -58 -100 -75 -48 -8 26 -9
85 -1 98 9 16 49 15 64 0z m527 -121 c4 -18 5 -53 3 -77 -4 -61 -25 -59 -60 5
-33 60 -34 65 -8 65 11 0 25 9 32 20 18 28 26 25 33 -13z m3171 -247 c223
-241 348 -401 409 -525 61 -123 64 -142 30 -155 -34 -13 -239 -13 -285 0 -49
13 -91 60 -143 157 l-44 81 74 68 c75 71 85 91 56 119 -22 23 -62 14 -143 -34
-138 -81 -179 -82 -332 -3 -140 72 -166 89 -173 113 -8 25 9 46 51 64 48 20
117 115 187 256 l61 125 86 -90 c47 -50 122 -129 166 -176z m-3350 85 c15 -24
15 -28 0 -70 -10 -25 -26 -55 -36 -67 -19 -23 -19 -23 -20 63 0 47 3 89 7 92
13 14 33 6 49 -18z m2316 -87 c21 -18 48 -60 48 -75 0 -22 -37 -15 -69 13 -33
28 -38 43 -19 62 15 15 20 15 40 0z m-1827 -230 c13 -45 5 -83 -14 -63 -8 9
-31 102 -31 128 0 24 31 -21 45 -65z m-760 -28 c8 -26 -3 -62 -18 -57 -7 2
-13 14 -15 26 -7 45 20 71 33 31z m192 -17 c19 -29 23 -127 5 -145 -16 -16
-39 29 -45 90 -9 82 7 105 40 55z m2118 -3 c3 -5 30 -17 60 -25 58 -17 81 -36
71 -60 -7 -19 -30 -19 -45 -1 -7 8 -29 17 -50 21 -41 7 -88 46 -76 64 8 14 32
14 40 1z m930 -180 c22 -8 26 -15 23 -42 -5 -50 -34 -48 -88 7 l-44 45 41 0
c23 0 54 -4 68 -10z m-2461 -62 c-9 -18 -19 -28 -21 -21 -2 6 4 27 13 45 9 18
19 28 21 21 2 -6 -4 -27 -13 -45z m2334 2 c59 -42 81 -90 43 -90 -63 0 -164
77 -140 106 18 22 53 16 97 -16z m-2179 -59 c11 -20 5 -31 -16 -31 -7 0 -13
11 -13 25 0 29 15 33 29 6z m2322 -71 c20 -6 44 -19 54 -30 41 -46 38 -197 -5
-232 -12 -10 -26 -16 -30 -13 -5 3 -16 30 -25 60 l-16 55 -44 0 c-35 0 -47 5
-64 26 -12 15 -21 39 -21 53 0 41 51 84 105 90 6 0 26 -4 46 -9z m-457 -110
c-1 -14 -4 -33 -9 -42 -6 -16 -1 -18 34 -18 87 0 146 -52 110 -96 -12 -15 -16
-13 -41 17 -25 30 -30 32 -52 20 -17 -10 -29 -10 -44 -2 -27 15 -102 101 -102
118 0 18 37 33 75 30 25 -2 30 -6 29 -27z m1291 -76 c0 -10 -8 -20 -18 -22
-22 -4 -35 27 -16 39 20 12 34 5 34 -17z m-1117 -138 c3 -12 -1 -17 -10 -14
-7 3 -15 13 -16 22 -3 12 1 17 10 14 7 -3 15 -13 16 -22z m778 -11 c4 -8 3
-23 0 -32 -6 -15 -8 -15 -16 -3 -13 20 -12 50 0 50 6 0 13 -7 16 -15z m-1766
-64 c0 -39 -9 -61 -26 -61 -17 0 -18 30 -2 65 15 33 28 32 28 -4z m-2050 -27
c0 -14 -21 -19 -33 -7 -9 9 13 34 24 27 5 -3 9 -12 9 -20z m3356 -44 c36 0 78
-30 99 -70 19 -37 20 -99 1 -106 -18 -7 -113 40 -149 75 -55 51 -83 131 -54
160 10 10 18 5 42 -23 23 -27 38 -36 61 -36z m-271 -140 c0 -44 -29 -54 -46
-16 -9 20 -9 29 1 41 22 27 45 14 45 -25z m-245 -156 c0 -29 -16 -40 -35 -24
-18 15 -20 57 -2 63 18 7 37 -13 37 -39z m-1630 -25 c31 -57 -20 -90 -74 -48
l-29 23 29 23 c36 28 60 29 74 2z m2319 -85 c54 -58 56 -65 52 -156 l-3 -58
31 0 c41 0 51 22 51 119 0 98 8 102 74 31 58 -62 61 -99 9 -112 -39 -10 -41
-23 -13 -96 25 -66 26 -123 2 -152 l-19 -23 -19 27 c-49 69 -60 79 -99 96 -69
30 -118 108 -136 219 -9 57 -2 161 11 161 5 0 31 -25 59 -56z m-2304 -150 c61
-13 157 -30 215 -36 109 -11 130 -19 130 -48 0 -9 12 -39 26 -66 29 -54 30
-47 -19 -223 -63 -227 -181 -422 -309 -511 -37 -25 -82 -63 -100 -83 -45 -50
-139 -104 -207 -117 -31 -7 -126 -31 -211 -55 -85 -24 -167 -46 -182 -49 -21
-5 -55 8 -145 54 -223 114 -291 184 -340 352 -38 133 -26 304 28 379 47 66
259 202 474 304 299 143 387 156 640 99z m-2089 -39 c19 -46 18 -47 -13 -43
-20 2 -29 9 -31 26 -8 58 22 69 44 17z m3006 -187 c-6 -6 -16 -7 -23 -3 -9 6
-7 12 7 22 21 15 34 -1 16 -19z m-2871 -33 c39 -56 62 -145 49 -180 -13 -35
-204 -225 -225 -225 -34 0 -67 127 -66 247 1 128 20 158 116 189 66 22 96 14
126 -31z m2789 16 c0 -5 -7 -14 -15 -21 -18 -15 -42 1 -31 19 8 13 46 15 46 2z
m1255 -246 c0 -16 -5 -30 -12 -32 -14 -5 -28 40 -18 57 12 19 30 4 30 -25z
m-3805 -42 c31 -18 70 -80 70 -111 0 -37 -11 -50 -101 -122 -54 -43 -107 -97
-135 -136 -58 -81 -73 -90 -108 -63 -33 26 -66 89 -66 125 0 18 19 48 58 93
32 36 82 96 111 134 79 101 111 116 171 80z m2378 -57 c34 -45 40 -72 20 -79
-24 -7 -49 6 -59 30 -11 29 -12 93 -1 93 4 0 22 -20 40 -44z m1630 22 c18 -18
15 -36 -8 -48 -15 -8 -21 -6 -30 11 -9 15 -8 24 1 35 14 17 21 18 37 2z
m-1410 -126 c5 -60 -9 -74 -44 -41 -28 26 -30 48 -8 91 14 28 17 29 31 15 9
-9 18 -38 21 -65z m1004 68 c23 0 48 -28 42 -45 -10 -24 -32 -17 -72 21 -34
33 -35 35 -12 30 14 -3 33 -6 42 -6z m-825 -26 c9 -23 -13 -40 -32 -24 -8 7
-15 19 -15 26 0 19 39 18 47 -2z m-18 -98 c17 -18 8 -46 -16 -46 -21 0 -63 38
-63 58 0 18 57 9 79 -12z m-621 -35 c2 -12 1 -30 -3 -39 -5 -14 -7 -14 -15 -2
-15 23 -12 72 3 68 6 -3 13 -15 15 -27z m-1913 -13 c37 -29 85 -106 85 -136 0
-42 -187 -272 -221 -272 -11 0 -59 25 -108 56 -86 54 -89 58 -76 78 8 12 24
52 35 90 46 148 203 249 285 184z m271 -293 c42 -36 86 -72 97 -80 17 -12 18
-18 8 -47 -15 -45 -106 -196 -138 -230 -15 -16 -34 -28 -42 -28 -25 0 -78 36
-127 86 -34 36 -44 53 -44 79 0 58 127 285 160 285 5 0 44 -29 86 -65z m3211
-40 c43 -9 93 -66 93 -107 0 -25 -13 -44 -73 -102 -65 -65 -218 -186 -233
-186 -9 0 1 311 11 332 14 35 114 81 155 73 8 -2 29 -6 47 -10z m-2809 -197
c83 -24 84 -25 48 -119 -57 -153 -86 -199 -124 -199 -61 1 -212 89 -212 124 0
35 47 121 97 176 51 57 52 57 191 18z m611 1 c34 -32 43 -66 42 -159 -1 -90
-25 -203 -62 -289 -27 -63 -41 -68 -169 -53 -145 17 -300 59 -300 81 0 5 24
44 54 88 30 44 75 123 100 176 40 83 52 100 89 122 42 24 143 52 198 54 14 1
35 -8 48 -20z m1381 -23 c69 -34 90 -73 90 -167 0 -90 -23 -222 -45 -255 -8
-13 -32 -28 -52 -33 -57 -15 -207 -40 -212 -35 -8 8 20 411 32 460 10 42 16
50 42 55 42 9 92 0 145 -25z m428 7 c5 -10 12 -71 14 -135 6 -135 4 -140 -73
-188 -61 -37 -107 -49 -120 -29 -10 17 -12 279 -1 295 4 7 25 17 47 23 22 6
54 20 70 31 37 25 52 25 63 3z m-1268 -39 c7 -18 5 -58 -6 -132 -18 -125 -57
-315 -73 -356 l-12 -29 -115 7 c-63 4 -132 12 -152 19 -34 11 -37 15 -36 47 1
19 9 54 18 77 8 24 25 95 37 160 36 205 63 230 252 232 75 1 78 0 87 -25z
m411 -11 c11 -20 14 -67 13 -192 0 -195 -14 -278 -47 -286 -46 -11 -256 -10
-267 1 -9 9 -4 36 19 108 17 54 41 148 53 209 26 129 38 146 121 170 75 22 92
21 108 -10z m3764 -1042 c-14 -28 -27 -51 -30 -51 -5 0 20 72 36 102 25 46 19
-2 -6 -51z m-208 -223 c-6 -72 -24 -100 -92 -146 -63 -43 -79 -39 -83 17 -4
56 12 94 52 124 36 28 106 67 120 67 5 0 6 -27 3 -62z m-1844 -175 c-7 -2 -21
-2 -30 0 -10 3 -4 5 12 5 17 0 24 -2 18 -5z m1487 -3 c0 -39 -77 -119 -100
-105 -5 3 -10 24 -10 45 0 29 6 43 22 54 25 18 88 22 88 6z m-577 -144 c7 -16
-1 -26 -20 -26 -7 0 -13 9 -13 20 0 23 25 27 33 6z"/>
<path d="M9945 11485 c-33 -13 -73 -39 -89 -56 -25 -28 -28 -38 -23 -77 10
-91 62 -127 184 -127 67 0 87 4 110 21 70 51 98 190 48 239 -21 22 -33 25 -97
25 -54 0 -89 -7 -133 -25z m131 -60 c9 -35 -17 -97 -45 -111 -33 -17 -58 -6
-70 28 -13 37 -2 62 42 88 44 27 65 25 73 -5z"/>
<path d="M9439 11242 c-67 -44 -108 -80 -467 -415 -184 -171 -347 -330 -363
-353 -45 -66 -40 -98 25 -159 55 -52 179 -125 212 -125 10 0 46 -7 81 -16 61
-15 64 -15 102 7 26 14 49 39 66 71 18 32 134 158 329 357 310 315 363 377
373 434 6 40 -18 73 -110 145 -116 92 -169 103 -248 54z m170 -163 l73 -62
-274 -276 c-150 -152 -314 -320 -363 -373 -70 -76 -96 -98 -116 -98 -28 0
-160 81 -193 119 -17 19 -18 24 -5 48 36 68 758 703 799 703 3 0 39 -28 79
-61z"/>
<path d="M12259 10333 c-4 -24 7 -75 47 -224 24 -91 44 -186 44 -210 l0 -45
-51 48 c-56 52 -91 67 -114 48 -23 -19 -18 -59 16 -130 17 -36 40 -87 50 -113
l19 -48 -31 -44 -31 -43 55 -138 c30 -77 64 -169 76 -206 26 -80 41 -96 76
-80 36 17 41 53 17 135 -33 116 -34 132 -18 172 23 54 20 89 -19 225 -19 67
-35 126 -35 131 0 5 18 9 40 9 l40 0 0 59 c0 53 -51 285 -78 351 -26 64 -98
136 -103 103z"/>
<path d="M12202 9178 c-21 -21 -14 -60 38 -209 27 -79 50 -155 50 -169 0 -32
32 -84 65 -106 38 -25 75 -6 75 39 0 71 -123 382 -172 434 -24 26 -38 29 -56
11z"/>
<path d="M6992 9117 c-17 -18 -25 -47 -37 -135 -10 -77 -25 -137 -46 -190 -69
-168 -24 -325 85 -298 28 7 31 12 108 189 12 26 27 47 33 47 6 0 26 -21 45
-46 57 -80 132 -107 178 -64 30 28 28 47 -12 105 -18 28 -63 100 -99 161 -78
132 -137 208 -180 235 -41 24 -49 24 -75 -4z"/>
<path d="M12130 8820 c0 -21 17 -88 38 -147 21 -59 47 -150 57 -201 16 -82 21
-95 42 -103 17 -6 33 -5 51 4 25 12 27 17 25 67 -4 121 -146 420 -199 420 -10
0 -14 -12 -14 -40z"/>
<path d="M12077 8473 c-3 -5 -8 -44 -12 -88 -10 -117 37 -384 80 -448 8 -12
17 -52 21 -89 7 -68 22 -95 47 -85 8 3 34 44 59 92 l45 88 -42 126 c-24 69
-57 180 -75 246 -38 143 -50 165 -90 165 -16 0 -31 -3 -33 -7z"/>
<path d="M7977 8454 c-11 -11 24 -52 53 -62 42 -15 45 -3 8 35 -31 32 -48 40
-61 27z"/>
<path d="M4759 8365 c-31 -39 -78 -81 -110 -100 -27 -16 -35 -28 -39 -60 -5
-37 -7 -39 -53 -51 -26 -7 -76 -30 -110 -53 -38 -25 -84 -45 -115 -51 -29 -5
-61 -14 -72 -20 -25 -14 -42 -44 -34 -64 4 -11 -11 -32 -47 -65 -47 -44 -52
-51 -39 -66 12 -14 25 -16 76 -10 92 10 284 51 297 64 6 6 10 29 9 50 -3 41
-3 41 60 55 15 3 48 24 73 46 26 23 69 52 96 65 56 29 75 55 59 84 -5 11 -20
23 -32 27 -22 7 -22 7 -3 15 11 4 57 8 103 8 86 1 88 2 130 59 14 19 30 24 90
29 39 3 72 10 72 14 0 18 -83 31 -236 36 -145 5 -162 4 -175 -12z"/>
<path d="M11388 6934 c-70 -16 -126 -44 -154 -76 -33 -35 -56 -88 -117 -260
-31 -86 -74 -197 -97 -246 -45 -97 -49 -135 -12 -140 34 -5 88 34 133 94 22
30 44 54 49 54 9 0 30 -60 54 -155 12 -45 13 -70 6 -97 -11 -38 -78 -144 -154
-243 -35 -45 -46 -67 -44 -90 3 -26 8 -30 34 -33 40 -4 113 52 187 145 69 87
93 127 117 199 43 124 19 241 -83 397 l-57 87 27 66 c27 65 87 145 123 164 10
5 49 14 87 19 54 8 73 15 91 36 28 33 28 40 -3 70 -20 21 -34 25 -77 24 -29 0
-79 -7 -110 -15z"/>
<path d="M7370 6643 c0 -20 17 -54 49 -99 87 -124 221 -256 221 -217 0 3 -11
25 -25 49 -25 42 -44 139 -45 222 0 23 -2 42 -4 42 -2 0 -20 -16 -39 -35 -19
-19 -41 -35 -48 -35 -7 0 -35 23 -61 51 l-48 51 0 -29z"/>
<path d="M7704 6445 c-7 -19 -14 -62 -14 -95 0 -67 3 -72 99 -148 23 -19 53
-57 67 -85 40 -80 72 -117 100 -117 34 0 32 35 -10 151 -18 52 -39 119 -46
149 -20 85 -35 110 -70 110 -31 0 -55 18 -65 50 -10 33 -44 25 -61 -15z"/>
<path d="M9075 4844 c-9 -9 -14 -19 -11 -21 9 -9 46 9 46 23 0 19 -15 18 -35
-2z"/>
<path d="M9102 4760 c-35 -21 -76 -74 -87 -110 -4 -14 -16 -39 -26 -56 -25
-41 -35 -140 -20 -187 12 -34 10 -40 -24 -96 -36 -58 -36 -59 -20 -91 19 -37
16 -69 -13 -149 -38 -103 7 -134 78 -54 81 91 100 129 100 202 0 59 4 71 35
115 19 27 35 55 35 62 0 7 -12 25 -27 39 -26 24 -28 30 -27 108 1 67 6 92 27
137 15 30 27 62 27 71 0 26 -24 29 -58 9z"/>
<path d="M8162 4159 c-29 -12 -56 -27 -59 -35 -3 -9 2 -32 12 -53 10 -22 14
-48 11 -59 -9 -28 -94 -157 -139 -210 -21 -24 -37 -54 -37 -67 0 -22 -31 -54
-94 -98 -34 -23 -34 -59 -1 -77 31 -16 31 -21 1 -57 -40 -48 -49 -72 -35 -90
19 -22 62 -10 136 38 75 49 113 91 113 125 0 34 15 61 66 115 29 32 45 59 49
85 19 113 29 147 61 200 54 89 57 100 39 155 -14 43 -20 49 -43 48 -15 0 -51
-9 -80 -20z"/>
<path d="M9779 3523 c-50 -53 -69 -83 -69 -112 0 -13 -22 -54 -50 -91 -44 -59
-50 -74 -50 -116 -1 -54 -6 -65 -68 -146 -49 -63 -51 -91 -9 -96 15 -2 27 -8
27 -13 0 -6 -24 -36 -53 -67 -127 -136 -149 -174 -107 -187 30 -10 79 22 161
106 85 87 109 130 91 160 -19 29 -15 40 38 124 27 43 52 95 56 114 10 63 65
235 86 268 22 37 21 86 -2 91 -9 1 -31 -14 -51 -35z"/>
<path d="M3153 2557 c-81 -84 -80 -96 22 -239 50 -71 78 -100 117 -123 45 -26
55 -38 74 -88 28 -72 25 -68 162 -194 129 -118 118 -116 208 -31 84 79 99 145
30 133 -67 -13 -99 29 -136 176 -33 129 -46 142 -117 117 -38 -14 -53 -3 -53
38 0 26 -40 64 -68 64 -23 0 -47 29 -57 72 -8 31 -30 53 -65 63 -14 4 -36 18
-50 31 l-26 24 -41 -43z"/>
<path d="M6266 1987 c-21 -25 -41 -58 -45 -74 -11 -41 -46 -43 -82 -4 -15 17
-35 31 -44 31 -8 0 -36 -19 -61 -42 -39 -36 -47 -40 -67 -30 -62 32 -135 7
-122 -42 25 -86 187 -137 373 -116 127 14 231 36 311 66 98 37 141 52 188 64
45 11 68 38 58 69 -10 32 -212 111 -286 111 -40 0 -55 -12 -61 -50 -7 -51 -57
-32 -111 44 -13 17 -16 16 -51 -27z"/>
<path d="M9520 8784 c1 -11 7 -48 15 -84 16 -72 20 -210 6 -210 -14 0 -39 44
-56 101 -27 87 -33 99 -55 99 -32 0 -26 -53 41 -310 75 -293 95 -320 125 -174
8 39 28 89 45 116 31 48 31 48 19 115 -26 151 -86 321 -123 352 -15 12 -17 11
-17 -5z"/>
<path d="M9150 8475 c-18 -21 -5 -75 59 -247 64 -173 88 -266 97 -373 8 -105
18 -120 67 -111 48 9 61 34 53 102 -12 100 -145 495 -194 574 -20 33 -54 70
-63 70 -3 0 -12 -7 -19 -15z"/>
<path d="M7240 4230 c0 -11 5 -20 10 -20 6 0 10 9 10 20 0 11 -4 20 -10 20 -5
0 -10 -9 -10 -20z"/>
<path d="M4970 4095 c-119 -20 -279 -64 -329 -90 -141 -71 -370 -433 -373
-588 -2 -57 16 -77 67 -77 46 0 69 22 100 97 61 146 86 185 170 268 62 62 84
90 89 117 12 63 54 84 239 118 208 39 237 52 237 113 0 57 -52 68 -200 42z"/>
<path d="M1100 8163 c0 -20 103 -132 258 -280 l177 -168 8 -129 c9 -147 29
-214 67 -232 14 -6 38 -18 55 -25 38 -18 80 -87 100 -164 9 -33 22 -129 30
-213 16 -170 34 -226 100 -306 44 -54 96 -76 179 -76 78 0 98 -14 154 -107 52
-89 95 -141 139 -173 31 -21 46 -25 116 -25 l80 0 14 -60 c16 -71 70 -239 89
-277 22 -42 47 -52 105 -38 70 17 80 41 35 83 -63 58 -116 217 -116 348 0 61
-19 109 -55 137 -38 30 -54 28 -121 -18 -33 -22 -69 -40 -81 -40 -32 0 -67 49
-102 145 -39 109 -56 142 -80 155 -27 14 -85 12 -160 -5 -35 -9 -72 -13 -82
-10 -44 14 -72 108 -89 295 -15 170 -34 256 -82 358 -22 48 -59 135 -83 194
-87 212 -112 247 -287 396 -191 164 -368 277 -368 235z"/>
<path d="M329 6312 c-83 -44 -271 -159 -304 -187 l-30 -25 28 -24 c34 -32 88
-42 137 -27 22 6 71 36 111 66 40 30 80 55 89 55 17 0 73 -55 135 -133 44 -55
99 -95 165 -121 60 -23 85 -48 127 -126 79 -142 179 -260 223 -260 11 0 45 23
75 50 30 28 64 50 75 50 24 0 44 -29 69 -103 45 -131 117 -219 219 -271 56
-29 88 -32 127 -14 32 14 32 24 -1 32 -37 10 -30 54 14 79 42 24 66 9 57 -35
-8 -33 10 -43 102 -53 72 -9 107 5 181 69 30 25 59 46 66 46 17 0 39 -26 61
-70 9 -19 33 -52 53 -72 33 -35 35 -40 23 -62 -15 -28 -8 -81 15 -111 12 -17
26 -20 82 -19 37 0 77 6 89 12 13 7 48 47 79 89 31 42 83 107 115 146 42 50
59 78 59 99 0 28 -7 32 -45 28 -34 -4 -70 -27 -155 -100 -45 -38 -85 -70 -90
-70 -27 0 -89 114 -126 233 l-18 57 -100 1 c-162 2 -156 3 -209 -52 l-49 -49
-50 45 -51 45 -105 -55 c-67 -36 -114 -55 -131 -53 -29 3 -51 40 -109 184 -18
44 -46 102 -64 129 -29 44 -79 85 -104 85 -6 0 -48 -27 -94 -60 -46 -33 -88
-60 -94 -60 -6 0 -33 37 -60 83 -104 175 -134 214 -176 231 -22 9 -54 16 -71
16 -16 0 -42 6 -57 14 -34 18 -79 97 -88 157 -9 56 -27 92 -60 118 -36 28 -71
26 -135 -7z"/>
<path d="M1823 4219 c-8 -8 -13 -40 -13 -81 l0 -67 -102 7 c-57 4 -132 7 -166
7 l-64 0 -15 -45 c-8 -25 -19 -50 -24 -56 -6 -7 -44 -14 -87 -16 -65 -3 -84
-8 -120 -33 -52 -34 -74 -72 -71 -123 4 -60 0 -62 -124 -59 -109 2 -115 1
-155 -26 -23 -15 -68 -62 -99 -105 -69 -93 -95 -118 -150 -144 -55 -26 -128
-105 -158 -171 -14 -29 -29 -86 -35 -127 -7 -46 -20 -91 -36 -118 -32 -54
-158 -211 -253 -315 -96 -105 -85 -124 35 -62 131 69 311 222 340 290 7 18 20
91 28 163 9 71 21 141 27 155 7 15 43 43 94 71 86 48 141 99 171 158 45 89
119 147 187 148 16 0 69 -14 118 -31 83 -29 91 -30 113 -15 29 19 43 59 53
151 l8 70 113 -4 113 -3 53 58 54 58 137 8 c179 11 216 30 184 90 -6 11 -8 22
-5 25 8 8 87 -41 115 -71 42 -44 201 -78 201 -42 0 33 -172 157 -308 223 -83
40 -141 51 -159 32z"/>
</g>
</svg>
