{
	"asset":{
		"generator":"Khronos glTF Blender I/O v4.1.63",
		"version":"2.0"
	},
	"extensionsUsed":[
		"KHR_materials_specular"
	],
	"scene":0,
	"scenes":[
		{
			"name":"Scene",
			"nodes":[
				0
			]
		}
	],
	"nodes":[
		{
			"mesh":0,
			"name":"Plane.001",
			"rotation":[
				0.7071068286895752,
				0,
				0,
				0.7071068286895752
			],
			"scale":[
				1,
				1,
				1.607309103012085
			],
			"translation":[
				0.23309800028800964,
				1.0624364614486694,
				-20
			]
		}
	],
	"animations":[
		{
			"channels":[
				{
					"sampler":0,
					"target":{
						"node":0,
						"path":"weights"
					}
				}
			],
			"name":"KeyAction.006",
			"samplers":[
				{
					"input":14,
					"interpolation":"LINEAR",
					"output":15
				}
			]
		},
		{
			"channels":[
				{
					"sampler":0,
					"target":{
						"node":0,
						"path":"translation"
					}
				}
			],
			"name":"PlaneAction.003",
			"samplers":[
				{
					"input":14,
					"interpolation":"LINEAR",
					"output":16
				}
			]
		}
	],
	"materials":[
		{
			"doubleSided":true,
			"extensions":{
				"KHR_materials_specular":{
					"specularFactor":0
				}
			},
			"name":"Material.002",
			"pbrMetallicRoughness":{
				"baseColorFactor":[
					1,
					1,
					1,
					0
				],
				"baseColorTexture":{
					"index":0
				}
			}
		}
	],
	"meshes":[
		{
			"extras":{
				"targetNames":[
					"Key 1",
					"Key 2",
					"Key 3",
					"Key 4",
					"Key 5"
				]
			},
			"name":"Plane.001",
			"primitives":[
				{
					"attributes":{
						"POSITION":0,
						"NORMAL":1,
						"TEXCOORD_0":2
					},
					"indices":3,
					"material":0,
					"targets":[
						{
							"POSITION":4,
							"NORMAL":5
						},
						{
							"POSITION":6,
							"NORMAL":7
						},
						{
							"POSITION":8,
							"NORMAL":9
						},
						{
							"POSITION":10,
							"NORMAL":11
						},
						{
							"POSITION":12,
							"NORMAL":13
						}
					]
				}
			],
			"weights":[
				1,
				1,
				1,
				1,
				1
			]
		}
	],
	"textures":[
		{
			"sampler":0,
			"source":0
		}
	],
	"images":[
		{
			"mimeType":"image/png",
			"name":"Professional CV Resume",
			"uri":"Professional%20CV%20Resume.png"
		}
	],
	"accessors":[
		{
			"bufferView":0,
			"componentType":5126,
			"count":2998154,
			"max":[
				0.8203772306442261,
				-0.10335873812437057,
				1.7158010005950928
			],
			"min":[
				-1.1913994550704956,
				-0.14548349380493164,
				-0.287264347076416
			],
			"type":"VEC3"
		},
		{
			"bufferView":1,
			"componentType":5126,
			"count":2998154,
			"type":"VEC3"
		},
		{
			"bufferView":2,
			"componentType":5126,
			"count":2998154,
			"type":"VEC2"
		},
		{
			"bufferView":3,
			"componentType":5125,
			"count":6291456,
			"type":"SCALAR"
		},
		{
			"componentType":5126,
			"count":2998154,
			"max":[
				2.384185791015625e-07,
				0.023857243359088898,
				0.004642128944396973
			],
			"min":[
				-2.384185791015625e-07,
				-0.0015574395656585693,
				-1.8803071975708008
			],
			"sparse":{
				"count":1530208,
				"indices":{
					"bufferView":4,
					"componentType":5125
				},
				"values":{
					"bufferView":5
				}
			},
			"type":"VEC3"
		},
		{
			"componentType":5126,
			"count":2998154,
			"sparse":{
				"count":2237971,
				"indices":{
					"bufferView":6,
					"componentType":5125
				},
				"values":{
					"bufferView":7
				}
			},
			"type":"VEC3"
		},
		{
			"bufferView":8,
			"componentType":5126,
			"count":2998154,
			"max":[
				1.9297816753387451,
				0.023857243359088898,
				0.004642128944396973
			],
			"min":[
				-0.038831472396850586,
				-0.03198230266571045,
				-1.8803071975708008
			],
			"type":"VEC3"
		},
		{
			"bufferView":9,
			"componentType":5126,
			"count":2998154,
			"type":"VEC3"
		},
		{
			"bufferView":10,
			"componentType":5126,
			"count":2998154,
			"max":[
				1.9297817945480347,
				0.08550263196229935,
				0.008203506469726562
			],
			"min":[
				-0.038831472396850586,
				-0.03698533773422241,
				-1.8803073167800903
			],
			"type":"VEC3"
		},
		{
			"bufferView":11,
			"componentType":5126,
			"count":2998154,
			"type":"VEC3"
		},
		{
			"bufferView":12,
			"componentType":5126,
			"count":2998154,
			"max":[
				1.0804394483566284,
				0.12947046756744385,
				0.008203506469726562
			],
			"min":[
				-1.0812509059906006,
				-0.03698533773422241,
				-1.8803071975708008
			],
			"type":"VEC3"
		},
		{
			"bufferView":13,
			"componentType":5126,
			"count":2998154,
			"type":"VEC3"
		},
		{
			"bufferView":14,
			"componentType":5126,
			"count":2998154,
			"max":[
				1.0804394483566284,
				0.2589681148529053,
				0.042600154876708984
			],
			"min":[
				-1.0812509059906006,
				-0.044619858264923096,
				-1.8803071975708008
			],
			"type":"VEC3"
		},
		{
			"bufferView":15,
			"componentType":5126,
			"count":2998154,
			"type":"VEC3"
		},
		{
			"bufferView":16,
			"componentType":5126,
			"count":78,
			"max":[
				3.2083333333333335
			],
			"min":[
				0
			],
			"type":"SCALAR"
		},
		{
			"bufferView":17,
			"componentType":5126,
			"count":390,
			"type":"SCALAR"
		},
		{
			"bufferView":18,
			"componentType":5126,
			"count":78,
			"type":"VEC3"
		}
	],
	"bufferViews":[
		{
			"buffer":0,
			"byteLength":35977848,
			"byteOffset":0,
			"target":34962
		},
		{
			"buffer":0,
			"byteLength":35977848,
			"byteOffset":35977848,
			"target":34962
		},
		{
			"buffer":0,
			"byteLength":23985232,
			"byteOffset":71955696,
			"target":34962
		},
		{
			"buffer":0,
			"byteLength":25165824,
			"byteOffset":95940928,
			"target":34963
		},
		{
			"buffer":0,
			"byteLength":6120832,
			"byteOffset":121106752
		},
		{
			"buffer":0,
			"byteLength":18362496,
			"byteOffset":127227584
		},
		{
			"buffer":0,
			"byteLength":8951884,
			"byteOffset":145590080
		},
		{
			"buffer":0,
			"byteLength":26855652,
			"byteOffset":154541964
		},
		{
			"buffer":0,
			"byteLength":35977848,
			"byteOffset":181397616,
			"target":34962
		},
		{
			"buffer":0,
			"byteLength":35977848,
			"byteOffset":217375464,
			"target":34962
		},
		{
			"buffer":0,
			"byteLength":35977848,
			"byteOffset":253353312,
			"target":34962
		},
		{
			"buffer":0,
			"byteLength":35977848,
			"byteOffset":289331160,
			"target":34962
		},
		{
			"buffer":0,
			"byteLength":35977848,
			"byteOffset":325309008,
			"target":34962
		},
		{
			"buffer":0,
			"byteLength":35977848,
			"byteOffset":361286856,
			"target":34962
		},
		{
			"buffer":0,
			"byteLength":35977848,
			"byteOffset":397264704,
			"target":34962
		},
		{
			"buffer":0,
			"byteLength":35977848,
			"byteOffset":433242552,
			"target":34962
		},
		{
			"buffer":0,
			"byteLength":312,
			"byteOffset":469220400
		},
		{
			"buffer":0,
			"byteLength":1560,
			"byteOffset":469220712
		},
		{
			"buffer":0,
			"byteLength":936,
			"byteOffset":469222272
		}
	],
	"samplers":[
		{
			"magFilter":9729,
			"minFilter":9987
		}
	],
	"buffers":[
		{
			"byteLength":469223208,
			"uri":"resume.bin"
		}
	]
}
