{
	"asset":{
		"generator":"Khronos glTF Blender I/O v4.1.63",
		"version":"2.0"
	},
	"extensionsUsed":[
		"KHR_materials_clearcoat",
		"KHR_materials_transmission",
		"KHR_materials_specular",
		"KHR_materials_sheen",
		"KHR_materials_ior",
		"EXT_texture_webp"
	],
	"extensionsRequired":[
		"EXT_texture_webp"
	],
	"scene":0,
	"scenes":[
		{
			"name":"Scene",
			"nodes":[
				0
			]
		}
	],
	"nodes":[
		{
			"mesh":0,
			"name":"Plane",
			"rotation":[
				0.7070888876914978,
				-0.005026443861424923,
				0.00502644432708621,
				0.7070889472961426
			],
			"translation":[
				0.24481630325317383,
				0.1522282361984253,
				0.15830540657043457
			]
		}
	],
	"animations":[
		{
			"channels":[
				{
					"sampler":0,
					"target":{
						"node":0,
						"path":"weights"
					}
				}
			],
			"name":"KeyAction",
			"samplers":[
				{
					"input":6,
					"interpolation":"LINEAR",
					"output":7
				}
			]
		}
	],
	"materials":[
		{
			"doubleSided":true,
			"extensions":{
				"KHR_materials_clearcoat":{
					"clearcoatFactor":1,
					"clearcoatRoughnessFactor":1
				},
				"KHR_materials_transmission":{
					"transmissionFactor":1
				},
				"KHR_materials_specular":{
					"specularColorFactor":[
						2.0,
						2.0,
						2.0
					]
				},
				"KHR_materials_sheen":{
					"sheenColorFactor":[
						1.0,
						1.0,
						1.0
					],
					"sheenRoughnessFactor":1
				},
				"KHR_materials_ior":{
					"ior":1
				}
			},
			"name":"Material",
			"pbrMetallicRoughness":{
				"baseColorTexture":{
					"index":0
				}
			}
		}
	],
	"meshes":[
		{
			"extras":{
				"targetNames":[
					"Key 1"
				]
			},
			"name":"Plane",
			"primitives":[
				{
					"attributes":{
						"POSITION":0,
						"NORMAL":1,
						"TEXCOORD_0":2
					},
					"indices":3,
					"material":0,
					"targets":[
						{
							"POSITION":4,
							"NORMAL":5
						}
					]
				}
			],
			"weights":[
				1
			]
		}
	],
	"textures":[
		{
			"extensions":{
				"EXT_texture_webp":{
					"source":0
				}
			},
			"sampler":0
		}
	],
	"images":[
		{
			"mimeType":"image/webp",
			"name":"Professional CV Resume",
			"uri":"Professional%20CV%20Resume.webp"
		}
	],
	"accessors":[
		{
			"bufferView":0,
			"componentType":5126,
			"count":262139,
			"max":[
				0.7691128253936768,
				-0.15462107956409454,
				1.583309531211853
			],
			"min":[
				-1.251973032951355,
				-0.1862979680299759,
				-1.2499345541000366
			],
			"type":"VEC3"
		},
		{
			"bufferView":1,
			"componentType":5126,
			"count":262139,
			"type":"VEC3"
		},
		{
			"bufferView":2,
			"componentType":5126,
			"count":262139,
			"type":"VEC2"
		},
		{
			"bufferView":3,
			"componentType":5125,
			"count":393216,
			"type":"SCALAR"
		},
		{
			"bufferView":4,
			"componentType":5126,
			"count":262139,
			"max":[
				1.543891191482544,
				1.348826289176941,
				2.1332223415374756
			],
			"min":[
				-0.9856202006340027,
				-0.00036759674549102783,
				-1.3886804580688477
			],
			"type":"VEC3"
		},
		{
			"bufferView":5,
			"componentType":5126,
			"count":262139,
			"type":"VEC3"
		},
		{
			"bufferView":6,
			"componentType":5126,
			"count":12,
			"max":[
				0.5
			],
			"min":[
				0.041666666666666664
			],
			"type":"SCALAR"
		},
		{
			"bufferView":7,
			"componentType":5126,
			"count":12,
			"type":"SCALAR"
		}
	],
	"bufferViews":[
		{
			"buffer":0,
			"byteLength":3145668,
			"byteOffset":0,
			"target":34962
		},
		{
			"buffer":0,
			"byteLength":3145668,
			"byteOffset":3145668,
			"target":34962
		},
		{
			"buffer":0,
			"byteLength":2097112,
			"byteOffset":6291336,
			"target":34962
		},
		{
			"buffer":0,
			"byteLength":1572864,
			"byteOffset":8388448,
			"target":34963
		},
		{
			"buffer":0,
			"byteLength":3145668,
			"byteOffset":9961312,
			"target":34962
		},
		{
			"buffer":0,
			"byteLength":3145668,
			"byteOffset":13106980,
			"target":34962
		},
		{
			"buffer":0,
			"byteLength":48,
			"byteOffset":16252648
		},
		{
			"buffer":0,
			"byteLength":48,
			"byteOffset":16252696
		}
	],
	"samplers":[
		{
			"magFilter":9729,
			"minFilter":9987
		}
	],
	"buffers":[
		{
			"byteLength":16252744,
			"uri":"resume-animated.bin"
		}
	]
}
