{
  "accessors": [
    {
      "bufferView": 2,
      "componentType": 5126,
      "count": 5401,
      "max": [
        0.5613124966621399,
        1.337900161743164,
        0.7580286264419556
      ],
      "min": [
        -0.7341145277023315,
        0.006784665398299694,
        -0.7576465010643005
      ],
      "type": "VEC3"
    },
    {
      "bufferView": 2,
      "byteOffset": 64812,
      "componentType": 5126,
      "count": 5401,
      "max": [
        0.999483048915863,
        0.9997893571853638,
        0.9999770522117615
      ],
      "min": [
        -0.9997209310531616,
        -0.9998456239700317,
        -0.9998549818992615
      ],
      "type": "VEC3"
    },
    {
      "bufferView": 3,
      "componentType": 5126,
      "count": 5401,
      "max": [
        0.9994819164276123,
        0.9995153546333313,
        0.9999865889549255,
        1.0
      ],
      "min": [
        -0.9998083710670471,
        -0.9995267391204834,
        -0.9997564554214478,
        -1.0
      ],
      "type": "VEC4"
    },
    {
      "bufferView": 1,
      "componentType": 5126,
      "count": 5401,
      "max": [
        0.995956540107727,
        0.9960964322090149
      ],
      "min": [
        0.003909451421350241,
        0.0058023929595947266
      ],
      "type": "VEC2"
    },
    {
      "bufferView": 1,
      "byteOffset": 43208,
      "componentType": 5126,
      "count": 5401,
      "max": [
        0.995956540107727,
        0.9960964322090149
      ],
      "min": [
        0.003909451421350241,
        0.0058023929595947266
      ],
      "type": "VEC2"
    },
    {
      "bufferView": 1,
      "byteOffset": 86416,
      "componentType": 5126,
      "count": 5401,
      "max": [
        0.995956540107727,
        0.9960964322090149
      ],
      "min": [
        0.003909451421350241,
        0.0058023929595947266
      ],
      "type": "VEC2"
    },
    {
      "bufferView": 1,
      "byteOffset": 129624,
      "componentType": 5126,
      "count": 5401,
      "max": [
        0.995956540107727,
        0.9960964322090149
      ],
      "min": [
        0.003909451421350241,
        0.0058023929595947266
      ],
      "type": "VEC2"
    },
    {
      "bufferView": 0,
      "componentType": 5125,
      "count": 29922,
      "type": "SCALAR"
    }
  ],
  "asset": {
    "extras": {
      "author": "Onnix (https://sketchfab.com/Onnix)",
      "license": "CC-BY-4.0 (http://creativecommons.org/licenses/by/4.0/)",
      "source": "https://sketchfab.com/3d-models/covid-toy-aeef6d53b5ce4f2eb391281a2c04e89e",
      "title": "Covid Toy"
    },
    "generator": "Sketchfab-13.53.0",
    "version": "2.0"
  },
  "bufferViews": [
    {
      "buffer": 0,
      "byteLength": 119688,
      "name": "floatBufferViews",
      "target": 34963
    },
    {
      "buffer": 0,
      "byteLength": 172832,
      "byteOffset": 119688,
      "byteStride": 8,
      "name": "floatBufferViews",
      "target": 34962
    },
    {
      "buffer": 0,
      "byteLength": 129624,
      "byteOffset": 292520,
      "byteStride": 12,
      "name": "floatBufferViews",
      "target": 34962
    },
    {
      "buffer": 0,
      "byteLength": 86416,
      "byteOffset": 422144,
      "byteStride": 16,
      "name": "floatBufferViews",
      "target": 34962
    }
  ],
  "buffers": [
    {
      "byteLength": 508560,
      "uri": "scene.bin"
    }
  ],
  "images": [
    {
      "uri": "textures/Covid_mtl_baseColor.jpeg"
    },
    {
      "uri": "textures/Covid_mtl_metallicRoughness.png"
    },
    {
      "uri": "textures/Covid_mtl_normal.jpeg"
    }
  ],
  "materials": [
    {
      "doubleSided": true,
      "name": "Covid_mtl",
      "normalTexture": {
        "index": 2
      },
      "pbrMetallicRoughness": {
        "baseColorTexture": {
          "index": 0
        },
        "metallicRoughnessTexture": {
          "index": 1
        }
      }
    }
  ],
  "meshes": [
    {
      "name": "Object_0",
      "primitives": [
        {
          "attributes": {
            "NORMAL": 1,
            "POSITION": 0,
            "TANGENT": 2,
            "TEXCOORD_0": 3,
            "TEXCOORD_1": 4,
            "TEXCOORD_2": 5,
            "TEXCOORD_3": 6
          },
          "indices": 7,
          "material": 0,
          "mode": 4
        }
      ]
    }
  ],
  "nodes": [
    {
      "children": [
        1
      ],
      "matrix": [
        1.0,
        0.0,
        0.0,
        0.0,
        0.0,
        2.220446049250313e-16,
        -1.0,
        0.0,
        0.0,
        1.0,
        2.220446049250313e-16,
        0.0,
        0.0,
        0.0,
        0.0,
        1.0
      ],
      "name": "Sketchfab_model"
    },
    {
      "children": [
        2
      ],
      "name": "root"
    },
    {
      "children": [
        3
      ],
      "matrix": [
        1.0,
        0.0,
        0.0,
        0.0,
        0.0,
        2.220446049250313e-16,
        1.0,
        0.0,
        0.0,
        -1.0,
        2.220446049250313e-16,
        0.0,
        0.0,
        0.0,
        0.0,
        1.0
      ],
      "name": "GLTF_SceneRootNode"
    },
    {
      "children": [
        4
      ],
      "name": "Covid Toy_0"
    },
    {
      "mesh": 0,
      "name": "Object_4"
    }
  ],
  "samplers": [
    {
      "magFilter": 9729,
      "minFilter": 9987,
      "wrapS": 10497,
      "wrapT": 10497
    }
  ],
  "scene": 0,
  "scenes": [
    {
      "name": "Sketchfab_Scene",
      "nodes": [
        0
      ]
    }
  ],
  "textures": [
    {
      "sampler": 0,
      "source": 0
    },
    {
      "sampler": 0,
      "source": 1
    },
    {
      "sampler": 0,
      "source": 2
    }
  ]
}
