# Blender 4.1.1
# www.blender.org
mtllib warning0018.mtl
o warning
v 0.029243 -2.465452 0.312837
v 0.081446 -2.499819 0.312837
v 0.066196 -2.522983 0.234742
v 0.013993 -2.488615 0.234742
v -0.424449 -1.641209 0.993082
v -0.439761 -1.701805 0.993082
v -0.467078 -1.694901 0.915146
v -0.451766 -1.634306 0.915146
v -0.045995 -2.278627 0.997812
v -0.025440 -2.337651 0.997812
v -0.068241 -2.352556 0.928431
v -0.088796 -2.293533 0.928431
v 0.374994 -1.748795 1.533618
v 0.368286 -1.810933 1.533618
v 0.364050 -1.810476 1.450855
v 0.370758 -1.748337 1.450855
v 0.126596 -2.648600 0.021831
v -0.037892 -2.658332 0.003918
v -0.041583 -2.595941 0.003918
v 0.122905 -2.586210 0.021831
v 0.847249 -2.706129 0.604300
v 0.970342 -2.688949 0.494643
v 0.961702 -2.627049 0.494643
v 0.838609 -2.644228 0.604300
v 0.059742 -2.419124 0.469027
v -0.044664 -2.350390 0.469027
v -0.029415 -2.327226 0.547122
v 0.074991 -2.395961 0.547122
v -0.799591 -2.192170 0.908231
v -0.828142 -2.070475 0.908231
v -0.799718 -2.063806 0.985791
v -0.771168 -2.185502 0.985791
v -0.306134 -1.905531 0.258197
v -0.264383 -1.954789 0.310143
v -0.270308 -2.044459 0.362089
v -0.353812 -1.945943 0.258197
v -1.062181 -2.547349 0.444622
v -1.001922 -2.528369 0.498254
v -0.983146 -2.587983 0.498254
v -0.472548 -2.754277 1.130444
v -0.438196 -2.742088 1.292132
v -0.417295 -2.800989 1.292132
v -0.451647 -2.813179 1.130444
v -0.609998 -2.244154 1.224370
v -0.620507 -2.182544 1.224370
v -0.619629 -2.118991 1.306434
v -0.598613 -2.242212 1.306434
v -0.700045 -2.233014 1.140911
v -0.714320 -2.172166 1.140911
v -0.685897 -2.165497 1.218471
v 0.052075 -2.038718 0.123744
v 0.044442 -1.913951 0.123744
v -0.032012 -1.918628 0.155381
v -0.024378 -2.043395 0.155381
v 0.740942 -2.428220 1.024927
v 0.749293 -2.490159 1.024927
v 0.790177 -2.547713 0.948833
v 0.773476 -2.423833 0.948833
v 0.935785 -2.441349 0.494643
v 0.944424 -2.503249 0.494643
v 1.005970 -2.494659 0.439814
v 0.682839 -1.952078 0.415624
v 0.572602 -2.011007 0.415624
v 0.553095 -1.974516 0.343820
v 0.663332 -1.915587 0.343820
v -0.838931 -1.619135 0.538755
v -0.796053 -1.645325 0.604660
v -0.828632 -1.698662 0.604660
v -0.871510 -1.672472 0.538755
v -0.600367 -2.369316 1.142305
v -0.588982 -2.367374 1.224370
v -0.578473 -2.428985 1.224370
v -0.589859 -2.430927 1.142305
v -1.080957 -2.487736 0.444622
v -1.020698 -2.468756 0.498254
v -0.258457 -1.865119 0.258197
v -0.216705 -1.914378 0.310143
v -0.102881 -2.474679 0.717248
v -0.011484 -2.446466 0.852607
v 0.006951 -2.506186 0.852607
v -0.084447 -2.534398 0.717248
v 0.679438 -1.813140 0.200212
v 0.718451 -1.886122 0.343820
v 0.624319 -1.842605 0.200212
v -0.389638 -1.807015 0.154306
v -0.431390 -1.757757 0.102361
v -0.383712 -1.717345 0.102361
v -0.341961 -1.766603 0.154306
v 0.643342 -2.441378 1.253208
v 0.675875 -2.436992 1.177114
v 0.667525 -2.375052 1.177114
v 0.634991 -2.379438 1.253208
v 0.343449 -2.518526 0.097275
v 0.398716 -2.460484 0.076190
v 0.353454 -2.417385 0.076190
v 0.298186 -2.475427 0.097275
v -0.105708 -1.627382 0.413214
v -0.122212 -1.598978 0.337130
v -0.068173 -1.567578 0.337130
v -0.051669 -1.595981 0.413214
v 0.042943 -1.446382 0.850163
v 0.024105 -1.505976 0.850163
v 0.046642 -1.578648 0.779559
v 0.084317 -1.459461 0.779559
v -0.035829 -1.856245 0.155381
v -0.714447 -2.043802 1.218471
v -0.742870 -2.050470 1.140911
v -0.951605 -1.825459 0.278442
v -0.991712 -1.873394 0.278442
v -1.040716 -1.832392 0.225666
v -1.000610 -1.784457 0.225666
v -1.296197 -2.017606 0.503264
v -1.316101 -2.076852 0.503264
v -1.371867 -2.058116 0.444893
v -1.351962 -1.998871 0.444893
v -0.421019 -2.735993 1.372976
v -0.400119 -2.794894 1.372976
v -0.941662 -2.509390 0.551887
v -0.922886 -2.569003 0.551887
v -1.204569 -2.114321 0.620004
v -1.184665 -2.055076 0.620004
v -0.893703 -1.955397 0.383995
v -0.853596 -1.907463 0.383995
v -0.484993 -1.887839 0.154306
v -0.532670 -1.928251 0.154306
v -0.622099 -1.919405 0.102361
v -0.526744 -1.838581 0.102361
v -0.385988 -2.946363 0.974496
v -0.362595 -3.004321 0.974496
v -0.369899 -3.007269 0.891998
v 0.759784 -2.529018 0.659128
v 0.777063 -2.652818 0.659128
v 0.821331 -2.520428 0.604300
v -0.035164 -1.624385 0.489298
v -0.072700 -1.684189 0.565381
v -0.881809 -1.592945 0.472849
v -1.336005 -2.136097 0.503264
v -1.411675 -2.176608 0.444893
v -0.131633 -2.068813 0.241623
v -0.177835 -2.110903 0.241623
v -0.136531 -2.156243 0.185890
v -0.358317 -2.912698 1.372976
v -0.375493 -2.918793 1.292132
v -0.849230 -1.539608 0.472849
v -0.806352 -1.565797 0.538755
v 0.002371 -1.564581 0.413214
v 0.018875 -1.592985 0.489298
v -0.373120 -1.783109 1.226889
v -0.400438 -1.776206 1.148953
v -0.385125 -1.715611 1.148953
v -0.357808 -1.722514 1.226889
v -0.671426 -1.644084 0.992284
v -0.697258 -1.634403 0.914137
v -0.675326 -1.575878 0.914137
v -0.649494 -1.585558 0.992284
v -0.047686 -2.411579 0.928431
v -0.069931 -2.485508 0.859049
v -0.111042 -2.367462 0.859049
v 0.129368 -2.600196 0.426511
v 0.178791 -2.638453 0.426511
v 0.147212 -2.679250 0.361655
v -0.002654 -2.312921 0.920287
v 0.034215 -2.432360 0.920287
v -0.048353 -2.327027 0.852607
v 0.442857 -2.033445 0.343820
v 0.462364 -2.069936 0.415624
v 1.023249 -2.618459 0.439814
v 0.210370 -2.597656 0.491367
v 0.291373 -2.595115 0.556223
v 0.228215 -2.676709 0.426511
v 0.408721 -2.359343 0.055106
v 0.732592 -2.366280 1.024927
v -0.030638 -1.507774 0.261046
v 0.308191 -2.374286 0.076190
v -0.455073 -1.762400 0.993082
v -1.224473 -2.173568 0.620004
v -0.214241 -1.978134 0.353090
v -0.260443 -2.020224 0.353090
v -0.315811 -3.120236 0.974496
v -0.292419 -3.178193 0.974496
v -0.276331 -3.239098 0.891998
v -0.323115 -3.123183 0.891998
v 0.235719 -2.162645 0.999549
v 0.206428 -2.217856 0.999549
v 0.222222 -2.226235 0.918627
v 0.208839 -2.643735 0.030788
v 0.216222 -2.768517 0.030788
v 0.133978 -2.773382 0.021831
v 0.363458 -2.316243 0.055106
v 0.160947 -2.559399 0.491367
v -0.004884 -2.396673 0.997812
v -0.482391 -1.755497 0.915146
v -0.369813 -1.655016 1.148953
v -0.342496 -1.661919 1.226889
v 0.111945 -2.453491 0.469027
v 0.127194 -2.430328 0.547122
v -0.785316 -2.253018 0.908231
v -0.756893 -2.246350 0.985791
v -0.653393 -1.517352 0.914137
v -0.627561 -1.527033 0.992284
v -0.730896 -1.538650 0.604660
v -0.623662 -1.595239 1.070431
v -0.621384 -2.246096 1.142305
v -0.174399 -2.323345 0.789668
v -0.066787 -2.267308 0.852607
v 0.355579 -1.809562 1.285328
v 0.362287 -1.747423 1.285328
v 0.306725 -2.716097 0.463847
v 0.301054 -2.653854 0.463847
v 0.233556 -2.660004 0.511534
v 0.239226 -2.722246 0.511534
v -0.354593 -2.977695 1.292132
v -0.337417 -2.971600 1.372976
v -0.182733 -2.198333 0.185890
v -0.224037 -2.152994 0.241623
v -0.972820 -3.113099 0.475129
v -1.006968 -3.060752 0.475129
v -0.958812 -3.029339 0.534813
v -0.924665 -3.081686 0.534813
v -0.347988 -2.998425 1.139492
v -0.340685 -2.995477 1.221990
v -0.309989 -3.050487 1.304487
v -0.324596 -3.056383 1.139492
v -0.392670 -2.924888 1.211288
v 0.436051 -2.641556 0.368473
v 0.441722 -2.703798 0.368473
v -0.643278 -2.186428 1.060241
v -0.480183 -3.291337 0.994605
v -0.469055 -3.283730 0.912836
v -0.493200 -3.224527 0.831067
v -0.515455 -3.239741 0.994605
v -0.876510 -3.050272 0.594497
v -0.306646 -2.062315 0.353090
v 1.031888 -2.680359 0.439814
v -0.120135 -2.663198 -0.005039
v -0.123826 -2.600807 -0.005039
v 0.841820 -2.982739 0.242160
v 0.881972 -3.030636 0.242160
v 0.939538 -2.982378 0.207156
v 0.899387 -2.934482 0.207156
v 0.407245 -2.099401 0.415624
v 0.387738 -2.062910 0.343820
v 0.201457 -2.518953 0.030788
v 0.052649 -2.492079 0.920287
v 0.196636 -2.717506 0.361655
v 0.765125 -2.361894 0.948833
v 0.737958 -1.922613 0.415624
v 0.812692 -2.458528 0.604300
v 0.742506 -2.405218 0.659128
v 0.684226 -2.498931 1.177114
v -0.443241 -1.937097 0.206252
v -0.449166 -2.026767 0.258197
v -0.468824 -2.819274 1.049600
v -0.430747 -2.872081 1.130444
v -0.371380 -2.940468 1.139492
v -0.979214 -2.390164 0.551887
v -0.577596 -2.365433 1.306434
v -0.920396 -1.688588 0.225666
v -0.871392 -1.729590 0.278442
v 0.052889 -1.805968 0.052052
v 0.131671 -1.820371 0.073354
v 0.199214 -1.896255 0.094657
v 0.041649 -1.867449 0.052052
v 0.358052 -1.746966 1.202565
v -0.158184 -2.295520 0.717247
v -0.139750 -2.355240 0.717248
v 0.968294 -3.286732 0.902523
v 0.938473 -3.231805 0.902523
v 0.877040 -3.194041 0.977182
v 0.936682 -3.303894 0.977182
v 0.979690 -3.030275 0.207156
v -0.112753 -2.787979 -0.005039
v -0.030509 -2.783114 0.003918
v -0.773383 -1.811594 0.383995
v -0.831285 -1.681656 0.278442
v -0.733277 -1.763660 0.383995
v -0.173469 -2.115134 0.218655
v -0.020562 -2.105778 0.155381
v -0.177286 -2.052750 0.218655
v -0.075163 -2.396718 0.312837
v -0.090413 -2.419881 0.234742
v 0.388410 -1.624517 1.533618
v 0.384175 -1.624059 1.450855
v 0.059709 -2.163484 0.123744
v -0.856370 -3.186380 0.534813
v -0.808214 -3.154966 0.594497
v -0.409638 -3.394528 0.994605
v -0.398511 -3.386921 0.912836
v 1.031517 -3.252406 0.753203
v 1.001696 -3.197479 0.753203
v 1.094822 -2.933760 0.137149
v 1.054671 -2.885864 0.137149
v 0.075369 -1.683006 0.052051
v 0.154151 -1.697409 0.073354
v 0.371468 -1.622688 1.202565
v 0.375704 -1.623145 1.285328
v -0.039806 -1.420225 0.991373
v -0.058644 -1.479819 0.991373
v -0.188736 -1.865600 0.218655
v -0.184919 -1.927984 0.218655
v 0.249216 -2.099054 1.080470
v 0.190635 -2.209477 1.080470
v -0.308508 -3.117288 1.056994
v 0.520561 -2.822134 0.320786
v 0.509220 -2.697649 0.320786
v 0.453062 -2.828283 0.368473
v 0.514081 -1.901534 0.200212
v -0.904525 -3.217793 0.475129
v 0.250567 -2.846730 0.511534
v 0.318065 -2.840581 0.463847
v 1.014519 -2.837967 0.137149
v 0.348725 -1.989928 0.200212
v 0.403844 -1.960464 0.200212
vn 0.5182 0.7871 -0.3346
vn 0.9118 -0.2304 -0.3400
vn 0.7906 0.2753 -0.5469
vn 0.9929 -0.1072 -0.0514
vn 0.1079 0.0064 -0.9941
vn 0.6552 0.0915 0.7499
vn 0.9112 0.2138 -0.3523
vn 0.4053 -0.4782 -0.7792
vn 0.6173 0.1944 -0.7623
vn 0.9194 0.3262 -0.2199
vn 0.9761 0.1665 -0.1394
vn 0.3810 0.0233 0.9243
vn 0.9100 0.1227 0.3961
vn 0.6552 0.0914 0.7499
vn 0.4085 -0.7641 -0.4993
vn 0.6787 -0.4145 -0.6063
vn 0.7803 0.2409 -0.5771
vn 0.1754 0.1843 0.9671
vn 0.4612 -0.7938 -0.3964
vn 0.8123 -0.2568 0.5236
vn 0.4884 -0.4087 -0.7710
vn 0.6677 -0.2243 -0.7099
vn 0.9231 0.3726 -0.0950
vn 0.4529 -0.4972 0.7401
vn 0.8830 -0.3309 -0.3329
vn 0.4790 0.6189 -0.6225
vn 0.8626 -0.4576 0.2157
vn 0.5731 0.0522 0.8179
vn 0.4529 -0.4971 0.7401
vn 0.6032 0.3935 -0.6938
vn 0.8145 0.5568 0.1627
vn 0.3237 0.2713 0.9064
vn 0.2529 -0.0462 -0.9664
vn 0.7917 0.4299 0.4340
vn 0.8145 0.5568 0.1626
vt 0.625000 0.875000
vt 0.625000 0.812500
vt 0.687500 0.812500
vt 0.687500 0.875000
vt 0.625000 0.750000
vt 0.687500 0.750000
vt 0.750000 0.750000
vt 0.750000 0.812500
vt 0.750000 0.875000
vt 0.625000 0.125000
vt 0.750000 0.125000
vt 0.750000 0.187500
vt 0.625000 0.187500
vt 0.750000 0.250000
vt 0.625000 0.250000
vt 0.500000 0.875000
vt 0.500000 1.000000
vt 0.437500 1.000000
vt 0.437500 0.875000
vt 0.375000 1.000000
vt 0.375000 0.875000
vt 0.375000 0.500000
vt 0.312500 0.500000
vt 0.250000 0.437500
vt 0.375000 0.437500
vt 0.250000 0.500000
vt 0.250000 0.375000
vt 0.375000 0.375000
vt 0.250000 0.750000
vt 0.250000 0.812500
vt 0.187500 0.875000
vt 0.187500 0.750000
vt 0.250000 0.875000
vt 0.125000 0.875000
vt 0.125000 0.750000
vt 0.750000 0.500000
vt 0.750000 0.437500
vt 0.812500 0.375000
vt 0.812500 0.500000
vt 0.750000 0.375000
vt 0.875000 0.375000
vt 0.875000 0.500000
vt 0.375000 0.625000
vt 0.312500 0.625000
vt 0.312500 0.562500
vt 0.375000 0.562500
vt 0.250000 0.625000
vt 0.250000 0.562500
vt 1.000000 0.625000
vt 0.875000 0.625000
vt 0.875000 0.562500
vt 1.000000 0.562500
vt 1.000000 0.500000
vt 0.500000 0.500000
vt 0.562500 0.500000
vt 0.562500 0.562500
vt 0.500000 0.562500
vt 0.625000 0.500000
vt 0.625000 0.562500
vt 0.625000 0.625000
vt 0.562500 0.625000
vt 0.500000 0.625000
vt 0.125000 1.000000
vt 0.125000 0.937500
vt 0.187500 1.000000
vt 0.250000 1.000000
vt 0.125000 0.500000
vt 0.125000 0.437500
vt 0.187500 0.437500
vt 0.187500 0.500000
vt 0.125000 0.375000
vt 0.187500 0.375000
vt 0.000000 0.375000
vt 0.000000 0.437500
vt 0.000000 0.500000
vt 0.500000 0.375000
vt 0.500000 0.312500
vt 0.562500 0.250000
vt 0.562500 0.375000
vt 0.500000 0.250000
vt 0.625000 0.375000
vt 0.437500 0.625000
vt 0.125000 0.312500
vt 0.187500 0.250000
vt 0.125000 0.250000
vt 0.250000 0.250000
vt 0.437500 0.687500
vt 0.375000 0.687500
vt 0.500000 0.687500
vt 0.500000 0.750000
vt 0.437500 0.750000
vt 0.375000 0.750000
vt 0.750000 0.687500
vt 0.812500 0.625000
vt 0.812500 0.750000
vt 0.750000 0.625000
vt 0.875000 0.750000
vt 0.875000 0.250000
vt 0.812500 0.250000
vt 0.687500 0.625000
vt 0.750000 0.562500
vt 0.625000 0.687500
vt 0.000000 0.312500
vt 0.000000 0.250000
vt 0.500000 0.125000
vt 0.500000 0.062500
vt 0.562500 0.000000
vt 0.562500 0.125000
vt 0.500000 0.000000
vt 0.625000 0.000000
vt 0.687500 0.687500
vt 0.500000 0.812500
vt 0.437500 0.812500
vt 0.375000 0.812500
vt 0.312500 0.750000
vt 0.875000 0.812500
vt 0.875000 0.875000
vt 0.250000 0.125000
vt 0.250000 0.187500
vt 0.187500 0.187500
vt 0.187500 0.125000
vt 0.125000 0.187500
vt 0.125000 0.125000
vt 0.375000 0.250000
vt 0.312500 0.250000
vt 0.375000 0.187500
vt 0.375000 0.125000
vt 0.000000 0.125000
vt 0.062500 0.125000
vt 0.000000 0.187500
vt 0.812500 0.187500
vt 0.812500 0.125000
vt 0.875000 0.125000
vt 0.875000 0.187500
vt 0.812500 0.562500
vt 0.625000 0.437500
vt 0.437500 0.375000
vt 0.375000 0.312500
vt 0.187500 0.625000
vt 0.125000 0.625000
vt 1.000000 0.875000
vt 0.937500 0.875000
vt 1.000000 0.812500
vt 1.000000 0.750000
vt 0.875000 0.000000
vt 0.875000 0.062500
vt 0.812500 0.000000
vt 0.750000 0.000000
vt 0.000000 0.625000
vt 0.125000 0.687500
vt 0.000000 0.687500
vt 0.000000 0.750000
vt 0.625000 1.000000
vt 0.687500 1.000000
vt 0.750000 1.000000
vt 0.125000 0.000000
vt 0.062500 0.000000
vt 0.000000 0.000000
vt 1.000000 0.000000
vt 1.000000 0.062500
vt 1.000000 0.125000
vt 1.000000 1.000000
vt 0.937500 1.000000
vt 0.875000 1.000000
vt 0.000000 1.000000
vt 0.000000 0.937500
vt 0.000000 0.875000
vt 0.437500 0.125000
vt 0.437500 0.000000
vt 0.375000 0.000000
vt 1.000000 0.375000
vt 0.187500 0.000000
vt 0.250000 0.000000
vt 1.000000 0.187500
vt 1.000000 0.250000
s 0
usemtl warning
f 1/1/1 2/2/1 3/3/1 4/4/1
f 5/2/2 6/5/2 7/6/2 8/3/2
f 9/3/3 10/6/3 11/7/3 12/8/3
f 13/4/4 14/3/4 15/8/4 16/9/4
f 17/10/5 18/11/5 19/12/5 20/13/5
f 21/13/6 22/12/6 23/14/6 24/15/6
f 25/16/1 26/17/1 27/18/1 28/19/1
f 29/19/7 30/18/7 31/20/7 32/21/7
f 33/22/8 34/23/8 35/24/8 36/25/8
f 37/23/9 38/26/9 39/24/9
f 40/25/10 41/24/10 42/27/10 43/28/10
f 44/29/11 45/30/11 46/31/11 47/32/11
f 48/30/7 49/33/7 50/31/7
f 51/32/12 52/31/12 53/34/12 54/35/12
f 55/36/13 56/37/13 57/38/13 58/39/13
f 59/37/14 60/40/14 61/38/14
f 62/39/15 63/38/15 64/41/15 65/42/15
f 66/43/16 67/44/16 68/45/16 69/46/16
f 70/44/11 71/47/11 72/48/11 73/45/11
f 74/45/9 75/48/9 38/26/9 37/23/9
f 76/46/8 77/45/8 34/23/8 33/22/8
f 78/49/17 79/50/17 80/51/17 81/52/17
f 82/52/15 83/51/15 65/42/15 84/53/15
f 85/54/8 86/55/8 87/56/8 88/57/8
f 89/55/13 90/58/13 91/59/13 92/56/13
f 93/56/18 94/59/18 95/60/18 96/61/18
f 97/57/19 98/56/19 99/61/19 100/62/19
f 101/63/20 102/64/20 103/31/20 104/65/20
f 105/64/12 53/34/12 52/31/12
f 106/65/7 50/31/7 49/33/7 107/66/7
f 108/67/21 109/68/21 110/69/21 111/70/21
f 112/68/22 113/71/22 114/72/22 115/69/22
f 116/69/10 117/72/10 42/27/10 41/24/10
f 118/70/9 119/69/9 39/24/9 38/26/9
f 120/73/22 113/71/22 112/68/22 121/74/22
f 122/74/21 109/68/21 108/67/21 123/75/21
f 124/76/8 125/77/8 126/78/8 127/79/8
f 128/77/23 129/80/23 130/78/23
f 131/79/6 132/78/6 24/15/6 133/81/6
f 100/62/19 134/82/19 135/46/19 97/57/19
f 136/82/16 66/43/16 69/46/16
f 88/57/8 76/46/8 33/22/8 85/54/8
f 113/71/22 137/83/22 138/84/22 114/72/22
f 139/83/24 140/85/24 141/84/24
f 117/72/10 142/84/10 143/86/10 42/27/10
f 66/43/16 136/82/16 144/87/16 145/88/16
f 134/82/19 100/62/19 146/89/19 147/87/19
f 148/87/2 149/89/2 150/90/2 151/91/2
f 152/88/25 153/87/25 154/91/25 155/92/25
f 11/7/3 156/93/3 157/94/3 158/95/3
f 159/93/26 160/96/26 161/94/26
f 162/95/17 163/94/17 79/50/17 164/97/17
f 165/98/15 64/41/15 63/38/15 166/99/15
f 167/99/6 61/38/6 60/40/6 23/14/6
f 160/96/26 168/100/26 169/59/26 170/101/26
f 171/100/18 95/60/18 94/59/18
f 172/101/13 91/59/13 90/58/13 55/36/13
f 100/62/19 99/61/19 173/102/19 146/89/19
f 96/61/18 95/60/18 174/102/18
f 149/89/2 175/102/2 6/5/2 150/90/2
f 113/71/22 120/73/22 176/103/22 137/83/22
f 139/83/24 177/103/24 178/104/24 140/85/24
f 179/105/23 180/106/23 181/107/23 182/108/23
f 183/106/27 184/109/27 185/107/27
f 186/108/5 187/107/5 188/110/5 17/10/5
f 95/60/18 171/100/18 189/111/18 174/102/18
f 168/100/26 160/96/26 159/93/26 190/111/26
f 191/111/3 156/93/3 11/7/3 10/6/3
f 175/102/2 192/111/2 7/6/2 6/5/2
f 150/90/2 193/112/2 194/113/2 151/91/2
f 195/112/1 25/16/1 28/19/1 196/113/1
f 197/113/7 29/19/7 32/21/7 198/114/7
f 154/91/25 199/113/25 200/114/25 155/92/25
f 66/43/16 145/88/16 201/115/16 67/44/16
f 152/88/25 155/92/25 202/115/25
f 70/44/11 203/115/11 44/29/11 71/47/11
f 11/7/3 158/95/3 204/116/3 12/8/3
f 162/95/17 164/97/17 205/116/17
f 15/8/4 206/116/4 207/117/4 16/9/4
f 208/118/28 209/119/28 210/120/28 211/121/28
f 212/119/10 143/86/10 142/84/10 213/120/10
f 214/120/29 141/84/29 140/85/29 215/122/29
f 216/121/30 217/120/30 218/122/30 219/123/30
f 220/124/23 221/125/23 222/119/23 223/126/23
f 224/125/10 143/86/10 212/119/10
f 225/126/28 209/119/28 208/118/28 226/127/28
f 44/29/11 203/115/11 227/114/11 45/30/11
f 202/115/25 155/92/25 200/114/25
f 48/30/7 198/114/7 32/21/7 49/33/7
f 228/128/31 229/129/31 230/122/31 231/130/31
f 232/129/30 219/123/30 218/122/30
f 233/130/29 215/122/29 140/85/29 178/104/29
f 23/14/6 22/12/6 234/131/6 167/99/6
f 19/12/5 18/11/5 235/132/5 236/131/5
f 237/131/32 238/132/32 239/133/32 240/134/32
f 166/99/15 241/131/15 242/134/15 165/98/15
f 17/10/5 20/13/5 243/78/5 186/108/5
f 21/13/14 24/15/14 132/78/14
f 182/108/23 130/78/23 129/80/23 179/105/23
f 79/50/17 163/94/17 244/135/17 80/51/17
f 161/94/26 160/96/26 170/101/26 245/135/26
f 246/135/13 172/101/13 55/36/13 58/39/13
f 83/51/15 247/135/15 62/39/15 65/42/15
f 133/81/6 248/136/6 249/55/6 131/79/6
f 250/136/13 90/58/13 89/55/13
f 127/79/8 86/55/8 85/54/8 124/76/8
f 124/76/8 251/137/8 252/138/8 125/77/8
f 253/137/10 43/28/10 254/138/10
f 128/77/23 255/138/23 220/124/23 129/80/23
f 133/81/6 60/40/6 59/37/6 248/136/6
f 250/136/13 56/37/13 55/36/13 90/58/13
f 38/26/9 75/48/9 256/139/9 118/70/9
f 72/48/11 71/47/11 257/139/11
f 111/70/21 258/139/21 259/140/21 108/67/21
f 260/141/33 261/142/33 262/116/33 263/143/33
f 264/142/4 207/117/4 206/116/4
f 265/143/17 205/116/17 164/97/17 266/144/17
f 267/145/34 268/146/34 269/132/34 270/147/34
f 271/146/32 239/133/32 238/132/32
f 272/147/5 235/132/5 18/11/5 273/148/5
f 33/22/8 36/25/8 251/137/8 124/76/8
f 40/25/10 43/28/10 253/137/10
f 33/22/8 124/76/8 85/54/8
f 274/149/21 259/140/21 275/150/21 276/151/21
f 277/151/12 278/150/12 54/35/12 279/152/12
f 280/153/1 1/1/1 4/4/1 281/154/1
f 282/154/4 13/4/4 16/9/4 283/155/4
f 1/1/1 25/16/1 195/112/1 2/2/1
f 5/2/2 193/112/2 150/90/2 6/5/2
f 54/35/12 278/150/12 284/139/12 51/32/12
f 275/150/21 259/140/21 258/139/21
f 47/32/11 257/139/11 71/47/11 44/29/11
f 143/86/10 224/125/10 254/138/10 43/28/10
f 221/125/23 220/124/23 255/138/23
f 143/86/10 43/28/10 42/27/10
f 285/156/30 219/123/30 232/129/30 286/157/30
f 228/128/35 287/158/35 288/157/35 229/129/35
f 267/145/34 289/159/34 290/160/34 268/146/34
f 271/146/32 291/160/32 292/161/32 239/133/32
f 260/141/33 293/162/33 294/163/33 261/142/33
f 264/142/4 295/163/4 296/164/4 207/117/4
f 101/63/20 297/165/20 298/166/20 102/64/20
f 105/64/12 299/166/12 300/167/12 53/34/12
f 274/149/21 123/75/21 108/67/21 259/140/21
f 184/109/27 183/106/27 301/168/27 302/169/27
f 180/106/23 179/105/23 303/168/23
f 304/169/28 305/168/28 226/127/28 306/170/28
f 65/42/15 64/41/15 307/171/15 84/53/15
f 1/1/1 280/153/1 26/17/1 25/16/1
f 17/10/5 188/110/5 273/148/5 18/11/5
f 79/50/17 78/49/17 266/144/17 164/97/17
f 32/21/7 31/20/7 107/66/7 49/33/7
f 300/167/12 279/152/12 54/35/12 53/34/12
f 219/123/30 285/156/30 308/172/30 216/121/30
f 211/121/28 309/172/28 310/173/28 208/118/28
f 239/133/32 292/161/32 311/174/32 240/134/32
f 242/134/15 312/174/15 313/175/15 165/98/15
f 207/117/4 296/164/4 283/155/4 16/9/4
f 23/14/6 60/40/6 133/81/6 24/15/6
f 220/124/23 223/126/23 303/168/23 179/105/23
f 225/126/28 226/127/28 305/168/28
f 220/124/23 179/105/23 129/80/23
f 310/173/28 306/170/28 226/127/28 208/118/28
f 64/41/15 165/98/15 313/175/15 307/171/15
