{
	"asset":{
		"generator":"Khronos glTF Blender I/O v4.1.63",
		"version":"2.0"
	},
	"extensionsUsed":[
		"EXT_texture_webp"
	],
	"extensionsRequired":[
		"EXT_texture_webp"
	],
	"scene":0,
	"scenes":[
		{
			"name":"Scene",
			"nodes":[
				0,
				1,
				2,
				3,
				4,
				5,
				6
			]
		}
	],
	"nodes":[
		{
			"mesh":0,
			"name":"Metal_fence",
			"rotation":[
				0.7071068286895752,
				0,
				0,
				0.7071068286895752
			],
			"scale":[
				0.009999999776482582,
				0.009999999776482582,
				0.009999999776482582
			],
			"translation":[
				1.2324376106262207,
				-0.06474799662828445,
				-0.0001049999991664663
			]
		},
		{
			"mesh":1,
			"name":"Metal_fence.001",
			"rotation":[
				0.7071068286895752,
				0,
				0,
				0.7071068286895752
			],
			"scale":[
				0.009999999776482582,
				0.009999999776482582,
				0.009999999776482582
			],
			"translation":[
				1.2323408126831055,
				-0.06474794447422028,
				-0.00023389887064695358
			]
		},
		{
			"mesh":2,
			"name":"Metal_fence.003",
			"rotation":[
				0.7071068286895752,
				0,
				0,
				0.7071068286895752
			],
			"scale":[
				0.009999999776482582,
				0.009999999776482582,
				0.009999999776482582
			],
			"translation":[
				-1.2952890396118164,
				-0.06474799662828445,
				-0.0001049999991664663
			]
		},
		{
			"mesh":3,
			"name":"Metal_fence.002",
			"rotation":[
				0.7071068286895752,
				0,
				0,
				0.7071068286895752
			],
			"scale":[
				0.009999999776482582,
				0.009999999776482582,
				0.009999999776482582
			],
			"translation":[
				-3.8553476333618164,
				-0.06474799662828445,
				-0.0001049999991664663
			]
		},
		{
			"mesh":4,
			"name":"Metal_fence.004",
			"rotation":[
				0.7071068286895752,
				0,
				0,
				0.7071068286895752
			],
			"scale":[
				0.009999999776482582,
				0.009999999776482582,
				0.009999999776482582
			],
			"translation":[
				3.8082456588745117,
				-0.06474799662828445,
				-0.0001049999991664663
			]
		},
		{
			"mesh":5,
			"name":"Metal_fence.005",
			"rotation":[
				0.7071068286895752,
				0,
				0,
				0.7071068286895752
			],
			"scale":[
				0.009999999776482582,
				0.009999999776482582,
				0.009999999776482582
			],
			"translation":[
				6.3786234855651855,
				-0.06474799662828445,
				-0.0001049999991664663
			]
		},
		{
			"mesh":6,
			"name":"Metal_fence.006",
			"rotation":[
				0.7071068286895752,
				0,
				0,
				0.7071068286895752
			],
			"scale":[
				0.009999999776482582,
				0.009999999776482582,
				0.009999999776482582
			],
			"translation":[
				-6.424122333526611,
				-0.06474799662828445,
				-0.0001049999991664663
			]
		}
	],
	"animations":[
		{
			"channels":[
				{
					"sampler":0,
					"target":{
						"node":0,
						"path":"weights"
					}
				}
			],
			"name":"Key.001Action.001",
			"samplers":[
				{
					"input":28,
					"interpolation":"CUBICSPLINE",
					"output":29
				}
			]
		},
		{
			"channels":[
				{
					"sampler":0,
					"target":{
						"node":1,
						"path":"weights"
					}
				}
			],
			"name":"KeyAction",
			"samplers":[
				{
					"input":30,
					"interpolation":"CUBICSPLINE",
					"output":31
				}
			]
		}
	],
	"materials":[
		{
			"doubleSided":true,
			"name":"lambert5",
			"normalTexture":{
				"index":0
			},
			"pbrMetallicRoughness":{
				"baseColorTexture":{
					"index":1
				},
				"metallicRoughnessTexture":{
					"index":2
				}
			}
		},
		{
			"doubleSided":true,
			"name":"lambert5.001",
			"normalTexture":{
				"index":3
			},
			"pbrMetallicRoughness":{
				"baseColorTexture":{
					"index":4
				},
				"metallicRoughnessTexture":{
					"index":5
				}
			}
		},
		{
			"doubleSided":true,
			"name":"lambert5.002",
			"normalTexture":{
				"index":6
			},
			"pbrMetallicRoughness":{
				"baseColorTexture":{
					"index":7
				},
				"metallicRoughnessTexture":{
					"index":8
				}
			}
		},
		{
			"doubleSided":true,
			"name":"lambert5.003",
			"normalTexture":{
				"index":9
			},
			"pbrMetallicRoughness":{
				"baseColorTexture":{
					"index":10
				},
				"metallicRoughnessTexture":{
					"index":11
				}
			}
		},
		{
			"doubleSided":true,
			"name":"lambert5.004",
			"normalTexture":{
				"index":12
			},
			"pbrMetallicRoughness":{
				"baseColorTexture":{
					"index":13
				},
				"metallicRoughnessTexture":{
					"index":14
				}
			}
		},
		{
			"doubleSided":true,
			"name":"lambert5.005",
			"normalTexture":{
				"index":15
			},
			"pbrMetallicRoughness":{
				"baseColorTexture":{
					"index":16
				},
				"metallicRoughnessTexture":{
					"index":17
				}
			}
		}
	],
	"meshes":[
		{
			"extras":{
				"targetNames":[
					"Key 1"
				]
			},
			"name":"Mesh",
			"primitives":[
				{
					"attributes":{
						"POSITION":0,
						"NORMAL":1,
						"TEXCOORD_0":2
					},
					"indices":3,
					"material":0,
					"targets":[
						{
							"POSITION":4,
							"NORMAL":5
						}
					]
				}
			],
			"weights":[
				0
			]
		},
		{
			"extras":{
				"targetNames":[
					"Key 1"
				]
			},
			"name":"Mesh.001",
			"primitives":[
				{
					"attributes":{
						"POSITION":6,
						"NORMAL":7,
						"TEXCOORD_0":8
					},
					"indices":9,
					"material":0,
					"targets":[
						{
							"POSITION":10,
							"NORMAL":11
						}
					]
				}
			],
			"weights":[
				0
			]
		},
		{
			"name":"Mesh.003",
			"primitives":[
				{
					"attributes":{
						"POSITION":12,
						"NORMAL":13,
						"TEXCOORD_0":14
					},
					"indices":15,
					"material":1
				}
			]
		},
		{
			"name":"Mesh.004",
			"primitives":[
				{
					"attributes":{
						"POSITION":16,
						"NORMAL":17,
						"TEXCOORD_0":18
					},
					"indices":15,
					"material":2
				}
			]
		},
		{
			"name":"Mesh.005",
			"primitives":[
				{
					"attributes":{
						"POSITION":19,
						"NORMAL":20,
						"TEXCOORD_0":21
					},
					"indices":15,
					"material":3
				}
			]
		},
		{
			"name":"Mesh.006",
			"primitives":[
				{
					"attributes":{
						"POSITION":22,
						"NORMAL":23,
						"TEXCOORD_0":24
					},
					"indices":15,
					"material":4
				}
			]
		},
		{
			"name":"Mesh.007",
			"primitives":[
				{
					"attributes":{
						"POSITION":25,
						"NORMAL":26,
						"TEXCOORD_0":27
					},
					"indices":15,
					"material":5
				}
			]
		}
	],
	"textures":[
		{
			"extensions":{
				"EXT_texture_webp":{
					"source":0
				}
			},
			"sampler":0
		},
		{
			"extensions":{
				"EXT_texture_webp":{
					"source":1
				}
			},
			"sampler":0
		},
		{
			"extensions":{
				"EXT_texture_webp":{
					"source":2
				}
			},
			"sampler":0
		},
		{
			"extensions":{
				"EXT_texture_webp":{
					"source":0
				}
			},
			"sampler":0
		},
		{
			"extensions":{
				"EXT_texture_webp":{
					"source":1
				}
			},
			"sampler":0
		},
		{
			"extensions":{
				"EXT_texture_webp":{
					"source":3
				}
			},
			"sampler":0
		},
		{
			"extensions":{
				"EXT_texture_webp":{
					"source":0
				}
			},
			"sampler":0
		},
		{
			"extensions":{
				"EXT_texture_webp":{
					"source":1
				}
			},
			"sampler":0
		},
		{
			"extensions":{
				"EXT_texture_webp":{
					"source":3
				}
			},
			"sampler":0
		},
		{
			"extensions":{
				"EXT_texture_webp":{
					"source":0
				}
			},
			"sampler":0
		},
		{
			"extensions":{
				"EXT_texture_webp":{
					"source":1
				}
			},
			"sampler":0
		},
		{
			"extensions":{
				"EXT_texture_webp":{
					"source":3
				}
			},
			"sampler":0
		},
		{
			"extensions":{
				"EXT_texture_webp":{
					"source":0
				}
			},
			"sampler":0
		},
		{
			"extensions":{
				"EXT_texture_webp":{
					"source":1
				}
			},
			"sampler":0
		},
		{
			"extensions":{
				"EXT_texture_webp":{
					"source":3
				}
			},
			"sampler":0
		},
		{
			"extensions":{
				"EXT_texture_webp":{
					"source":0
				}
			},
			"sampler":0
		},
		{
			"extensions":{
				"EXT_texture_webp":{
					"source":1
				}
			},
			"sampler":0
		},
		{
			"extensions":{
				"EXT_texture_webp":{
					"source":3
				}
			},
			"sampler":0
		}
	],
	"images":[
		{
			"mimeType":"image/webp",
			"name":"Metal_fence_Normal",
			"uri":"Metal_fence_Normal.webp"
		},
		{
			"mimeType":"image/webp",
			"name":"Metal_fence_Albedo",
			"uri":"Metal_fence_Albedo.webp"
		},
		{
			"mimeType":"image/webp",
			"name":"Metal_fence_Metallic-Metal_fence_Roughness",
			"uri":"Metal_fence_Metallic-Metal_fence_Roughness.webp"
		},
		{
			"mimeType":"image/webp",
			"name":"Metal_fence_Metallic.png-Metal_fence_Roughness.png",
			"uri":"Metal_fence_Metallic_png-Metal_fence_Roughness_png.webp"
		}
	],
	"accessors":[
		{
			"bufferView":0,
			"componentType":5126,
			"count":1749,
			"max":[
				-119.58261108398438,
				2.8966026306152344,
				-12.974800109863281
			],
			"min":[
				-248.32666015625,
				-3.076545000076294,
				-219.97479248046875
			],
			"type":"VEC3"
		},
		{
			"bufferView":1,
			"componentType":5126,
			"count":1749,
			"type":"VEC3"
		},
		{
			"bufferView":2,
			"componentType":5126,
			"count":1749,
			"type":"VEC2"
		},
		{
			"bufferView":3,
			"componentType":5123,
			"count":5754,
			"type":"SCALAR"
		},
		{
			"bufferView":4,
			"componentType":5126,
			"count":1749,
			"max":[
				-21.905410766601562,
				37.0074462890625,
				36.78404235839844
			],
			"min":[
				-285.3055419921875,
				-100.65449523925781,
				-3.5737762451171875
			],
			"type":"VEC3"
		},
		{
			"bufferView":5,
			"componentType":5126,
			"count":1749,
			"type":"VEC3"
		},
		{
			"bufferView":6,
			"componentType":5126,
			"count":1112,
			"max":[
				7.8559064865112305,
				1.8958810567855835,
				-12.974800109863281
			],
			"min":[
				-119.99668884277344,
				-2.1041202545166016,
				-219.97479248046875
			],
			"type":"VEC3"
		},
		{
			"bufferView":7,
			"componentType":5126,
			"count":1112,
			"type":"VEC3"
		},
		{
			"bufferView":8,
			"componentType":5126,
			"count":1112,
			"type":"VEC2"
		},
		{
			"bufferView":9,
			"componentType":5123,
			"count":3300,
			"type":"SCALAR"
		},
		{
			"bufferView":10,
			"componentType":5126,
			"count":1112,
			"max":[
				251.41644287109375,
				21.561689376831055,
				13.9398193359375
			],
			"min":[
				-6.782110691070557,
				-108.3448486328125,
				-17.667190551757812
			],
			"type":"VEC3"
		},
		{
			"bufferView":11,
			"componentType":5126,
			"count":1112,
			"type":"VEC3"
		},
		{
			"bufferView":12,
			"componentType":5126,
			"count":2827,
			"max":[
				8.267207145690918,
				2.8966026306152344,
				-12.974798202514648
			],
			"min":[
				-248.32666015625,
				-3.076545000076294,
				-219.97479248046875
			],
			"type":"VEC3"
		},
		{
			"bufferView":13,
			"componentType":5126,
			"count":2827,
			"type":"VEC3"
		},
		{
			"bufferView":14,
			"componentType":5126,
			"count":2827,
			"type":"VEC2"
		},
		{
			"bufferView":15,
			"componentType":5123,
			"count":9054,
			"type":"SCALAR"
		},
		{
			"bufferView":16,
			"componentType":5126,
			"count":2827,
			"max":[
				8.267207145690918,
				2.8966026306152344,
				-12.974798202514648
			],
			"min":[
				-248.32666015625,
				-3.076545000076294,
				-219.97479248046875
			],
			"type":"VEC3"
		},
		{
			"bufferView":17,
			"componentType":5126,
			"count":2827,
			"type":"VEC3"
		},
		{
			"bufferView":18,
			"componentType":5126,
			"count":2827,
			"type":"VEC2"
		},
		{
			"bufferView":19,
			"componentType":5126,
			"count":2827,
			"max":[
				8.267207145690918,
				2.8966026306152344,
				-12.974798202514648
			],
			"min":[
				-248.32666015625,
				-3.076545000076294,
				-219.97479248046875
			],
			"type":"VEC3"
		},
		{
			"bufferView":20,
			"componentType":5126,
			"count":2827,
			"type":"VEC3"
		},
		{
			"bufferView":21,
			"componentType":5126,
			"count":2827,
			"type":"VEC2"
		},
		{
			"bufferView":22,
			"componentType":5126,
			"count":2827,
			"max":[
				8.267207145690918,
				2.8966026306152344,
				-12.974798202514648
			],
			"min":[
				-248.32666015625,
				-3.076545000076294,
				-219.97479248046875
			],
			"type":"VEC3"
		},
		{
			"bufferView":23,
			"componentType":5126,
			"count":2827,
			"type":"VEC3"
		},
		{
			"bufferView":24,
			"componentType":5126,
			"count":2827,
			"type":"VEC2"
		},
		{
			"bufferView":25,
			"componentType":5126,
			"count":2827,
			"max":[
				8.267207145690918,
				2.8966026306152344,
				-12.974798202514648
			],
			"min":[
				-248.32666015625,
				-3.076545000076294,
				-219.97479248046875
			],
			"type":"VEC3"
		},
		{
			"bufferView":26,
			"componentType":5126,
			"count":2827,
			"type":"VEC3"
		},
		{
			"bufferView":27,
			"componentType":5126,
			"count":2827,
			"type":"VEC2"
		},
		{
			"bufferView":28,
			"componentType":5126,
			"count":3,
			"max":[
				0.2916666666666667
			],
			"min":[
				-0.041666666666666664
			],
			"type":"SCALAR"
		},
		{
			"bufferView":29,
			"componentType":5126,
			"count":9,
			"type":"SCALAR"
		},
		{
			"bufferView":30,
			"componentType":5126,
			"count":3,
			"max":[
				0.2916666666666667
			],
			"min":[
				0
			],
			"type":"SCALAR"
		},
		{
			"bufferView":31,
			"componentType":5126,
			"count":9,
			"type":"SCALAR"
		}
	],
	"bufferViews":[
		{
			"buffer":0,
			"byteLength":20988,
			"byteOffset":0,
			"target":34962
		},
		{
			"buffer":0,
			"byteLength":20988,
			"byteOffset":20988,
			"target":34962
		},
		{
			"buffer":0,
			"byteLength":13992,
			"byteOffset":41976,
			"target":34962
		},
		{
			"buffer":0,
			"byteLength":11508,
			"byteOffset":55968,
			"target":34963
		},
		{
			"buffer":0,
			"byteLength":20988,
			"byteOffset":67476,
			"target":34962
		},
		{
			"buffer":0,
			"byteLength":20988,
			"byteOffset":88464,
			"target":34962
		},
		{
			"buffer":0,
			"byteLength":13344,
			"byteOffset":109452,
			"target":34962
		},
		{
			"buffer":0,
			"byteLength":13344,
			"byteOffset":122796,
			"target":34962
		},
		{
			"buffer":0,
			"byteLength":8896,
			"byteOffset":136140,
			"target":34962
		},
		{
			"buffer":0,
			"byteLength":6600,
			"byteOffset":145036,
			"target":34963
		},
		{
			"buffer":0,
			"byteLength":13344,
			"byteOffset":151636,
			"target":34962
		},
		{
			"buffer":0,
			"byteLength":13344,
			"byteOffset":164980,
			"target":34962
		},
		{
			"buffer":0,
			"byteLength":33924,
			"byteOffset":178324,
			"target":34962
		},
		{
			"buffer":0,
			"byteLength":33924,
			"byteOffset":212248,
			"target":34962
		},
		{
			"buffer":0,
			"byteLength":22616,
			"byteOffset":246172,
			"target":34962
		},
		{
			"buffer":0,
			"byteLength":18108,
			"byteOffset":268788,
			"target":34963
		},
		{
			"buffer":0,
			"byteLength":33924,
			"byteOffset":286896,
			"target":34962
		},
		{
			"buffer":0,
			"byteLength":33924,
			"byteOffset":320820,
			"target":34962
		},
		{
			"buffer":0,
			"byteLength":22616,
			"byteOffset":354744,
			"target":34962
		},
		{
			"buffer":0,
			"byteLength":33924,
			"byteOffset":377360,
			"target":34962
		},
		{
			"buffer":0,
			"byteLength":33924,
			"byteOffset":411284,
			"target":34962
		},
		{
			"buffer":0,
			"byteLength":22616,
			"byteOffset":445208,
			"target":34962
		},
		{
			"buffer":0,
			"byteLength":33924,
			"byteOffset":467824,
			"target":34962
		},
		{
			"buffer":0,
			"byteLength":33924,
			"byteOffset":501748,
			"target":34962
		},
		{
			"buffer":0,
			"byteLength":22616,
			"byteOffset":535672,
			"target":34962
		},
		{
			"buffer":0,
			"byteLength":33924,
			"byteOffset":558288,
			"target":34962
		},
		{
			"buffer":0,
			"byteLength":33924,
			"byteOffset":592212,
			"target":34962
		},
		{
			"buffer":0,
			"byteLength":22616,
			"byteOffset":626136,
			"target":34962
		},
		{
			"buffer":0,
			"byteLength":12,
			"byteOffset":648752
		},
		{
			"buffer":0,
			"byteLength":36,
			"byteOffset":648764
		},
		{
			"buffer":0,
			"byteLength":12,
			"byteOffset":648800
		},
		{
			"buffer":0,
			"byteLength":36,
			"byteOffset":648812
		}
	],
	"samplers":[
		{
			"magFilter":9729,
			"minFilter":9987
		}
	],
	"buffers":[
		{
			"byteLength":648848,
			"uri":"fence.bin"
		}
	]
}
